<svg width="20" height="19" viewBox="0 0 20 19" fill="none" xmlns="http://www.w3.org/2000/svg">
<g clip-path="url(#clip0_777_2973)">
<path d="M8.58889 17.7774C13.0394 18.4117 17.1437 15.1892 17.7562 10.5796C18.3686 5.96991 15.2572 1.71889 10.8067 1.08456C6.35619 0.450235 2.25186 3.67282 1.63942 8.28242C1.34293 10.5141 1.9192 12.6616 3.09764 14.3554L2.29027 17.7774L5.61482 16.7204C6.50419 17.2553 7.50697 17.6232 8.58889 17.7774Z" stroke="#ABABAB" stroke-width="1.5" stroke-linejoin="round"/>
<path d="M5.74773 10.3945C6.21247 10.3945 6.58921 10.0043 6.58921 9.52293C6.58921 9.04158 6.21247 8.65137 5.74773 8.65137C5.28299 8.65137 4.90625 9.04158 4.90625 9.52293C4.90625 10.0043 5.28299 10.3945 5.74773 10.3945Z" fill="#ABABAB"/>
<path d="M9.6696 10.3945C10.1343 10.3945 10.5111 10.0043 10.5111 9.52293C10.5111 9.04158 10.1343 8.65137 9.6696 8.65137C9.20487 8.65137 8.82812 9.04158 8.82812 9.52293C8.82812 10.0043 9.20487 10.3945 9.6696 10.3945Z" fill="#ABABAB"/>
<path d="M13.5993 10.3945C14.064 10.3945 14.4408 10.0043 14.4408 9.52293C14.4408 9.04158 14.064 8.65137 13.5993 8.65137C13.1346 8.65137 12.7578 9.04158 12.7578 9.52293C12.7578 10.0043 13.1346 10.3945 13.5993 10.3945Z" fill="#ABABAB"/>
</g>
<defs>
<clipPath id="clip0_777_2973">
<rect width="19" height="19" fill="white" transform="translate(0.320312)"/>
</clipPath>
</defs>
</svg>
