<svg width="20" height="12" viewBox="0 0 20 12" fill="none" xmlns="http://www.w3.org/2000/svg">
<path d="M19.8805 6.63086C19.701 6.85026 15.4192 12 9.99995 12C4.5807 12 0.2991 6.8501 0.119413 6.63086C-0.0398043 6.43662 -0.0398043 6.15689 0.119413 5.96251C0.298934 5.74311 4.5807 0.593369 9.99995 0.593369C15.4192 0.593369 19.7008 5.74327 19.8805 5.96251C20.0398 6.15675 20.0398 6.43663 19.8805 6.63086ZM9.99995 1.64821C5.8419 1.64821 2.26059 5.1792 1.23144 6.29672C2.26044 7.41432 5.84153 10.9452 9.99995 10.9452C14.1584 10.9452 17.7393 7.41425 18.7685 6.29672C17.7395 5.17912 14.1584 1.64821 9.99995 1.64821Z" fill="white"/>
<path d="M10.0001 9.9873C7.96514 9.9873 6.30957 8.33188 6.30957 6.29679C6.30957 4.26184 7.96514 2.60627 10.0001 2.60627C12.035 2.60627 13.6906 4.26184 13.6906 6.29679C13.6906 8.33173 12.035 9.9873 10.0001 9.9873ZM10.0001 3.66096C8.54669 3.66096 7.36434 4.84332 7.36434 6.29671C7.36434 7.7501 8.54669 8.93246 10.0001 8.93246C11.4535 8.93246 12.6358 7.7501 12.6358 6.29671C12.6358 4.84332 11.4535 3.66096 10.0001 3.66096Z" fill="white"/>
</svg>
