<svg width="22" height="22" viewBox="0 0 22 22" fill="none" xmlns="http://www.w3.org/2000/svg">
<circle cx="11" cy="11" r="11" fill="#474D84"/>
<path d="M11.8518 3.72729C11.7334 3.72729 11.6164 3.72729 11.5008 3.72729C11.3837 3.72729 11.2627 3.72729 11.1497 3.72729C7.77245 3.94954 5.79129 7.53663 7.29633 10.4687L10.8027 17.8538C10.8671 17.9796 10.9666 18.0855 11.0899 18.1595C11.2132 18.2335 11.3556 18.2727 11.5008 18.2727C11.646 18.2727 11.7883 18.2335 11.9116 18.1595C12.035 18.0855 12.1344 17.9796 12.1988 17.8538L15.7052 10.4687C17.2062 7.53663 15.2291 3.94954 11.8518 3.72729ZM11.5008 10.0827C11.0495 10.0834 10.6082 9.95481 10.2327 9.71304C9.85716 9.47127 9.56433 9.12726 9.39128 8.72457C9.21823 8.32188 9.17275 7.87862 9.26058 7.45093C9.34842 7.02323 9.56563 6.63035 9.8847 6.32203C10.2038 6.01371 10.6104 5.80382 11.053 5.71894C11.4956 5.63406 11.9543 5.67802 12.371 5.84524C12.7877 6.01246 13.1438 6.29542 13.394 6.65828C13.6441 7.02115 13.7773 7.44761 13.7765 7.88364C13.7754 8.46654 13.5353 9.02528 13.1088 9.43746C12.6822 9.84963 12.104 10.0816 11.5008 10.0827Z" fill="#E0E0E0"/>
</svg>
