<svg width="225" height="42" viewBox="0 0 225 42" fill="none" xmlns="http://www.w3.org/2000/svg">
<g clip-path="url(#clip0_688_5020)">
<path fill-rule="evenodd" clip-rule="evenodd" d="M6.94419 40.9507C9.66564 41.7313 12.4942 42.0804 15.3253 41.985L15.323 41.9917C15.3562 41.9917 15.388 41.9787 15.4114 41.9554C15.4349 41.9321 15.4481 41.9005 15.4481 41.8675C15.4481 41.8346 15.4349 41.803 15.4114 41.7797C15.388 41.7564 15.3562 41.7433 15.323 41.7433C13.9486 41.6671 12.5809 41.4996 11.2291 41.242C9.87014 40.9923 8.53487 40.6289 7.23758 40.1557C5.94369 39.698 4.73373 39.0336 3.65544 38.1887C2.57932 37.3549 1.81739 36.1854 1.49251 34.869C1.46883 34.7694 1.45454 34.6682 1.44022 34.5668C1.43116 34.5026 1.42209 34.4383 1.41063 34.3744C1.38308 34.2102 1.36788 34.0441 1.36514 33.8776C1.35923 33.548 1.39825 33.219 1.48114 32.8998C1.66323 32.2623 2.01896 31.6872 2.50916 31.2376C3.01129 30.7844 3.58533 30.4167 4.20811 30.1491C4.83203 29.8754 5.48195 29.6644 6.14816 29.519C7.49235 29.2304 8.86774 29.1105 10.242 29.1622C10.3995 29.1673 10.5569 29.1742 10.7142 29.183C11.0626 29.6686 11.4239 30.1451 11.7977 30.6121C12.7107 31.7708 13.7072 32.8622 14.7794 33.8776C15.8826 34.9392 17.0911 35.8873 18.3866 36.7073C18.7633 36.9375 19.1545 37.1434 19.5579 37.3238C19.816 37.4355 20.0821 37.5284 20.3539 37.6016L20.4722 37.6309L20.6132 37.6603L20.7587 37.6851L20.8315 37.6964H20.9225L21.1067 37.71C21.1749 37.7135 21.2432 37.7135 21.3114 37.71C21.3445 37.7081 21.3776 37.7048 21.4105 37.7016C21.4591 37.6967 21.5073 37.6919 21.5548 37.6919L21.6753 37.6784L21.8345 37.6467C21.9414 37.6219 22.0483 37.5903 22.1507 37.5564C22.2772 37.5091 22.3996 37.4517 22.5168 37.3848C22.7794 37.2362 23.011 37.0392 23.1992 36.8044C23.4962 36.4259 23.6734 35.9685 23.7086 35.49V35.0474C23.7016 34.9328 23.6864 34.8189 23.6631 34.7064C23.6449 34.6116 23.6222 34.519 23.5994 34.4264L23.5289 34.2005L23.4925 34.0899L23.4584 34.0063L23.3925 33.8437C23.3811 33.8166 23.37 33.7894 23.3589 33.7621C23.3257 33.6804 23.2924 33.5987 23.2515 33.5208C23.1547 33.3091 23.0469 33.1025 22.9285 32.902C22.4736 32.1319 21.8995 31.4376 21.2273 30.8447C20.6024 30.2906 19.9156 29.8094 19.1803 29.4106C17.8005 28.6761 16.3225 28.1401 14.7908 27.8185C14.0172 27.6516 13.2355 27.5276 12.4491 27.4471C12.068 26.8903 11.7043 26.3213 11.3588 25.7409C9.94033 23.3981 8.90262 20.8481 8.28379 18.1845C8.13596 17.5296 8.01997 16.8521 7.93127 16.1746C7.84626 15.5254 7.8093 14.8761 7.77234 14.2269C7.77073 14.1986 7.76912 14.1704 7.76751 14.1422C7.70355 12.7839 7.77057 11.4227 7.96766 10.0772C8.15588 8.73627 8.55738 7.43356 9.15716 6.21771L9.27087 5.99188L9.40051 5.76605C9.44012 5.70251 9.47837 5.63808 9.51668 5.57355C9.56415 5.49357 9.61172 5.41345 9.66207 5.33471C9.85428 5.05102 10.0631 4.7788 10.2875 4.51945C11.1545 3.48979 12.3271 2.75864 13.6377 2.43051C14.2934 2.28088 14.9678 2.22762 15.6391 2.27242C16.3139 2.3173 16.9798 2.44939 17.6201 2.66537C18.2659 2.87723 18.8879 3.15499 19.476 3.49417C20.6563 4.18082 21.729 5.03523 22.6601 6.03027C23.5916 7.03175 24.4057 8.13483 25.0869 9.31838C25.773 10.5036 26.3559 11.745 26.8291 13.0288C26.8629 13.1232 26.8976 13.2171 26.9323 13.3111C27.0162 13.5386 27.1 13.7658 27.1725 13.9976L27.4795 14.9755L27.7479 15.9691C27.794 16.1495 27.835 16.3377 27.8762 16.5269C27.9083 16.6742 27.9405 16.822 27.9753 16.9673C28.2692 18.3091 28.4872 19.6662 28.6281 21.0323C28.7596 22.3969 28.8218 23.7671 28.8146 25.1379C28.8063 26.5094 28.7205 27.8793 28.5576 29.2413C28.4028 30.6042 28.1643 31.9564 27.8434 33.2904C27.1952 35.9507 26.2332 38.5568 24.7776 40.8852C24.7677 40.8985 24.7607 40.9136 24.7569 40.9297C24.7531 40.9458 24.7526 40.9625 24.7554 40.9788C24.7582 40.995 24.7643 41.0106 24.7734 41.0245C24.7824 41.0383 24.7941 41.0503 24.8079 41.0595C24.8217 41.0688 24.8372 41.0752 24.8535 41.0784C24.8698 41.0816 24.8866 41.0815 24.9029 41.078C24.9192 41.0746 24.9346 41.068 24.9482 41.0585C24.9619 41.049 24.9734 41.0369 24.9823 41.0229C25.0994 40.8634 25.2144 40.7025 25.3273 40.5402C27.9404 37.6193 30.222 34.4217 32.1308 31.005C34.0663 27.5452 35.6811 23.8461 36.518 19.8828C36.9531 17.881 37.0948 15.8273 36.9388 13.7853C36.9224 13.5271 36.8913 13.2699 36.8455 13.0152C36.8311 12.9253 36.8184 12.835 36.8056 12.7448C36.7822 12.5791 36.7589 12.4134 36.725 12.2496C36.7116 12.1867 36.6983 12.1239 36.6851 12.061C36.5926 11.6231 36.5006 11.1871 36.3634 10.7546C36.0939 9.73677 35.6787 8.76255 35.1307 7.86172C34.567 6.92633 33.7725 6.14908 32.8222 5.6034C32.5838 5.46773 32.3351 5.35069 32.0784 5.25336C31.998 5.22196 31.9147 5.19688 31.8317 5.17184C31.7833 5.15726 31.735 5.14269 31.6873 5.1269C31.5589 5.08301 31.4274 5.04903 31.2938 5.02527L30.8958 4.94623L30.4978 4.90332C30.3649 4.88867 30.2312 4.88188 30.0975 4.883C29.9656 4.87622 29.8336 4.87622 29.7017 4.883C28.6715 4.94623 27.6599 5.18455 26.7109 5.58759C26.2733 5.76681 25.8477 5.97252 25.4365 6.20337C25.0481 5.66066 24.6324 5.13706 24.1908 4.63463C23.1373 3.45816 21.9104 2.447 20.5518 1.63558C19.8416 1.21222 19.0893 0.862592 18.307 0.592234C17.4933 0.295692 16.6436 0.10737 15.7801 0.0321709C14.878 -0.0433374 13.9697 0.0152719 13.085 0.206062C12.1846 0.414505 11.3233 0.763624 10.5332 1.24037C9.75626 1.70668 9.05914 2.29291 8.46802 2.97702C8.18035 3.3054 7.913 3.65081 7.66744 4.01133C7.63692 4.06018 7.60607 4.10937 7.57506 4.1588C7.49282 4.28991 7.40949 4.42275 7.32856 4.55559L7.1648 4.82884L7.02152 5.10887C6.29205 6.54925 5.79912 8.09614 5.56137 9.691C5.32944 11.1932 5.24186 12.7138 5.29981 14.2325C5.30238 14.2818 5.30493 14.3311 5.30747 14.3804C5.34327 15.0731 5.37879 15.7604 5.46584 16.4773C5.55793 17.24 5.68926 17.9975 5.85931 18.7469C6.54986 21.6593 7.70136 24.4446 9.27087 26.9988C9.34132 27.1148 9.41245 27.2305 9.48427 27.3457C8.23496 27.3912 6.99352 27.5715 5.78198 27.884C5.01508 28.0827 4.26997 28.3565 3.55764 28.7015C2.79167 29.0689 2.0917 29.5587 1.48569 30.1514C0.983171 30.636 0.591178 31.222 0.336154 31.8699C0.0811295 32.5178 -0.0309955 33.2124 0.00734192 33.907L0.0255373 34.2389C0.0318015 34.3151 0.0456133 34.3838 0.0595486 34.4531C0.0658518 34.4845 0.0721803 34.516 0.077847 34.5483C0.085632 34.5897 0.0931404 34.631 0.100632 34.6722C0.130348 34.8356 0.159802 34.9976 0.205213 35.1581C0.426051 35.9545 0.792227 36.7038 1.28554 37.369C1.75477 38.0055 2.32107 38.5655 2.96403 39.0288C4.16939 39.8922 5.51591 40.5424 6.94419 40.9507ZM25.6073 6.44573C26.0357 7.06345 26.4292 7.70506 26.7858 8.36763C27.4895 9.67004 28.0792 11.03 28.5485 12.4326C28.5872 12.5535 28.6265 12.6738 28.6657 12.794C28.7394 13.0198 28.8131 13.2453 28.8828 13.4737L29.1762 14.5216C29.3513 15.2261 29.503 15.933 29.6311 16.6421C29.8815 18.0541 30.0501 19.4792 30.136 20.9103C30.2145 22.3313 30.2145 23.7554 30.136 25.1763C30.0519 26.5904 29.8886 27.9987 29.647 29.3948C29.4126 30.7822 29.0843 32.1524 28.6645 33.4959C28.2542 34.8263 27.7522 36.127 27.1622 37.3888C27.5111 36.78 27.8538 36.1685 28.1893 35.5532C29.1263 33.8347 30.0292 32.1093 30.8617 30.3591C32.522 26.8542 33.9503 23.2409 34.7281 19.5192C34.7995 19.1874 34.8569 18.8557 34.9146 18.5232C34.9377 18.3893 34.961 18.2554 34.9851 18.1213L35.0761 17.4212C35.1102 17.1954 35.1375 16.9537 35.1511 16.7189L35.2103 16.0188C35.2232 15.8761 35.2252 15.7272 35.2273 15.5782C35.2285 15.4913 35.2297 15.4044 35.233 15.3187C35.2559 14.8887 35.2369 14.4644 35.2178 14.0388C35.216 13.9995 35.2143 13.9601 35.2125 13.9208C35.2125 13.7615 35.1944 13.6021 35.1758 13.438C35.168 13.3695 35.1601 13.3002 35.1534 13.2297C35.1307 12.9904 35.1102 12.7781 35.0715 12.5387C35.046 12.4016 35.0225 12.2623 34.999 12.1222C34.9449 11.8005 34.8901 11.4748 34.8077 11.1634C34.6199 10.2699 34.314 9.40503 33.8979 8.59116C33.8321 8.47271 33.763 8.35919 33.6936 8.24516C33.6478 8.17003 33.602 8.09468 33.5568 8.01754C33.4386 7.83168 33.3063 7.65502 33.1611 7.4891L32.9336 7.24972L32.8222 7.12777C32.7992 7.10634 32.7747 7.0857 32.75 7.06492C32.7331 7.05066 32.716 7.03633 32.6994 7.02163L32.456 6.79579C32.4027 6.75145 32.3457 6.71254 32.2892 6.6739C32.2564 6.65154 32.2238 6.62927 32.1922 6.60609C31.4522 6.10273 30.5862 5.81273 29.6904 5.76826C29.222 5.73449 28.7515 5.74357 28.2848 5.79536C27.37 5.90948 26.4716 6.12774 25.6073 6.44573ZM14.1251 29.68C14.8446 30.5564 15.6111 31.3953 16.4215 32.1929C17.3879 33.16 18.4501 34.0278 19.592 34.7832C19.8751 34.9641 20.1699 35.1263 20.4744 35.2687C20.6214 35.3362 20.7735 35.392 20.9293 35.4358C21.0626 35.4794 21.2038 35.494 21.3433 35.4788C21.4456 35.4517 21.4706 35.4246 21.4865 35.2958C21.4891 35.151 21.4644 35.0071 21.4138 34.8713C21.3067 34.5582 21.1704 34.2558 21.0067 33.9679C20.3516 32.8026 19.2895 31.8948 18.1182 31.215C16.9262 30.5409 15.6434 30.039 14.3086 29.7246C14.2475 29.7094 14.1863 29.6946 14.1251 29.68Z" fill="url(#paint0_linear_688_5020)"/>
</g>
<path d="M50 9.75L41 32.25" stroke="#F7F7F7"/>
<g clip-path="url(#clip1_688_5020)">
<path fill-rule="evenodd" clip-rule="evenodd" d="M222.079 14.126H222.04V14.2H222.003V14.2371H221.966V14.2739H221.892V14.311H221.03V13.4548H221.855V13.4919H221.928V13.5291H221.966V13.5659H222.003V13.603H222.04V13.677H222.079V13.7891H222.115V13.9749H222.079V14.124V14.126ZM220.167 12.7109H220.131V16.0979H221.029V15.0979H221.632V15.1719H221.669V15.2458H221.706V15.3201H221.743V15.394H221.781V15.469H221.818V15.543H221.857V15.655H221.893V15.6919H221.93V15.7659H221.967V15.8398H222.005V15.9519H222.041V16.0259H222.08V16.0999H223.052V16.0259H223.016V15.9519H222.98V15.8779H222.942V15.804H222.904V15.73H222.867V15.656H222.83V15.582H222.792V15.5081H222.755V15.4329H222.716V15.396H222.679V15.2839H222.644V15.21H222.606V15.136H222.568V15.0989H222.531V15.0249H222.493V14.876H222.568V14.8389H222.606V14.801H222.644V14.7639H222.679V14.7271H222.716V14.6899H222.755V14.616H222.792V14.5789H222.83V14.5049H222.867V14.4309H222.904V14.3188H222.942V14.207H222.98V13.574H222.942V13.499H222.904V13.387H222.867V13.2749H222.83V13.2009H222.792V13.1641H222.755V13.127H222.716V13.053H222.679V13.0159H222.644V12.979H222.606V12.9419H222.531V12.905H222.493V12.8679H222.419V12.8311H222.344V12.7939H222.27V12.7568H222.121V12.72H221.972V12.6829H220.174V12.72L220.167 12.7109Z" fill="#FF0066"/>
<path d="M221.594 11C222.383 10.9998 223.148 11.2717 223.757 11.769C224.367 12.2664 224.785 12.9585 224.939 13.7275C225.093 14.4966 224.974 15.295 224.602 15.9866C224.23 16.6781 223.629 17.2202 222.9 17.5203C222.171 17.8203 221.361 17.8598 220.606 17.6321C219.851 17.4044 219.2 16.9235 218.761 16.2715C218.323 15.6194 218.126 14.8367 218.203 14.0564C218.281 13.2761 218.628 12.5465 219.186 11.9922C219.502 11.6771 219.877 11.4271 220.291 11.2568C220.704 11.0866 221.147 10.9993 221.594 11ZM223.393 12.6001C222.977 12.186 222.43 11.9281 221.844 11.8704C221.258 11.8127 220.67 11.9588 220.18 12.2837C219.69 12.6086 219.329 13.0923 219.158 13.6523C218.987 14.2124 219.016 14.8143 219.241 15.3552C219.466 15.8961 219.873 16.3427 220.392 16.6189C220.911 16.8951 221.511 16.9836 222.089 16.8696C222.666 16.7557 223.185 16.4462 223.559 15.9939C223.933 15.5416 224.137 14.9745 224.138 14.3892C224.138 14.0566 224.073 13.7273 223.945 13.4199C223.817 13.1126 223.63 12.8332 223.393 12.5981V12.6001Z" fill="#FF0066"/>
<path fill-rule="evenodd" clip-rule="evenodd" d="M199.535 19.5232H199.646L202.681 15.9492L198.487 11.0352H192.532L199.535 19.5232Z" fill="#FF0066"/>
<path fill-rule="evenodd" clip-rule="evenodd" d="M206.538 26.8491L209.982 30.981H216.385L209.721 23.127H209.646L206.538 26.8491Z" fill="#FF0066"/>
<path fill-rule="evenodd" clip-rule="evenodd" d="M192.532 30.9812H198.934L216.387 11.0352H210.432L192.532 30.9812Z" fill="#FF0066"/>
<path fill-rule="evenodd" clip-rule="evenodd" d="M172.159 11.0361H185.153C185.689 11.0356 186.222 11.1159 186.733 11.2741L182.573 15.7011H174.013C173.519 15.6903 173.041 15.8743 172.683 16.2128C172.325 16.5514 172.116 17.0169 172.102 17.508V24.508C172.107 24.8584 172.214 25.1999 172.41 25.4909C172.607 25.7819 172.884 26.0098 173.208 26.1471L169.393 30.2079C168.685 29.787 168.097 29.1925 167.686 28.4811C167.275 27.7697 167.055 26.9652 167.046 26.145V15.871C167.084 14.5573 167.643 13.3117 168.6 12.4059C169.558 11.5002 170.838 11.0078 172.159 11.0361ZM187.797 11.736C188.537 12.1486 189.155 12.748 189.588 13.4738C190.022 14.1996 190.255 15.0262 190.264 15.87V26.144C190.227 27.4576 189.669 28.7033 188.711 29.6093C187.754 30.5153 186.475 31.0081 185.153 30.9802H172.159C171.573 30.9804 170.992 30.884 170.437 30.695L174.553 26.3141H183.305C183.799 26.3249 184.277 26.1407 184.635 25.8022C184.993 25.4636 185.202 24.9981 185.216 24.507V17.507C185.209 17.1317 185.086 16.7676 184.863 16.4645C184.641 16.1614 184.329 15.9343 183.971 15.8141L187.804 11.736H187.797Z" fill="#FF0066"/>
<path fill-rule="evenodd" clip-rule="evenodd" d="M143.3 11.035H148.393V30.982H143.3V11.035ZM149.368 11.0179H160.158C161.366 10.9923 162.537 11.443 163.413 12.2715C164.288 13.1001 164.799 14.2395 164.833 15.441V16.586C164.833 19.019 164.386 21.0091 161.762 21.0091C164.333 21.0091 164.833 22.9989 164.833 25.4319V26.577C164.784 27.7848 164.259 28.9251 163.372 29.7523C162.485 30.5794 161.307 31.0275 160.091 31.0001H149.367V26.2339H159.023C159.197 26.2377 159.366 26.1728 159.493 26.0533C159.619 25.9337 159.692 25.7693 159.697 25.596V23.6119C159.692 23.4386 159.619 23.2744 159.493 23.1548C159.366 23.0353 159.197 22.9702 159.023 22.9739H149.367V19.0589H159.023C159.197 19.0627 159.366 18.9978 159.493 18.8782C159.619 18.7587 159.692 18.5942 159.697 18.421V16.4371C159.692 16.2638 159.619 16.0993 159.493 15.9798C159.366 15.8602 159.197 15.7951 159.023 15.7989H149.367L149.368 11.0179Z" fill="#FF0066"/>
<path fill-rule="evenodd" clip-rule="evenodd" d="M110.017 24.9949C110.033 25.8692 110.134 26.74 110.318 27.595C110.395 27.985 110.497 28.3695 110.625 28.7458C110.748 29.0808 110.915 29.5258 110.992 29.8398H93.3491C93.0725 29.8398 92.2125 28.1168 92.0888 27.7878C91.7785 26.8867 91.6043 25.9449 91.5717 24.9929V24.4319C91.6509 22.3952 92.4833 20.4592 93.9094 18.9949C95.3284 17.5075 97.2569 16.6033 99.314 16.4609H100.622C102.394 16.4774 104.095 17.1528 105.392 18.354C105.532 18.487 106.43 19.4661 106.498 19.4661H111.024C111.005 19.6821 110.723 20.2978 110.622 20.6108C110.173 22.0277 109.964 23.509 110.005 24.9939L110.017 24.9949ZM71.4309 28.72L69.8547 28.709L69.8658 30.9219H140.057L140.086 29.9041L137.432 29.8411C138.025 28.3723 138.368 26.8155 138.447 25.2349V24.2349C138.322 20.8614 136.894 17.6657 134.46 15.312C133.91 14.7704 133.316 14.2737 132.686 13.8269C132.371 13.6049 132.033 13.367 131.704 13.155C131.375 12.943 130.95 12.796 130.603 12.595C129.837 12.2227 129.037 11.9215 128.215 11.6951C127.764 11.568 127.307 11.4677 126.844 11.395C123.822 10.9472 120.734 11.3463 117.928 12.5479C116.483 13.2104 115.163 14.1146 114.025 15.2209C113.284 15.9297 112.634 16.7271 112.09 17.595H112.005C111.474 16.7171 110.847 15.9001 110.135 15.1589C109.783 14.7829 109.408 14.4288 109.012 14.0989C108.65 13.7509 108.151 13.518 107.764 13.199C106.827 12.6142 105.815 12.1581 104.755 11.843C104.182 11.6616 103.596 11.5196 103.004 11.418C102.868 11.395 101.058 11.192 101.048 11.187H99.1018C99.0394 11.224 97.9751 11.3079 97.8223 11.3379C97.4018 11.4179 97.0337 11.4959 96.6152 11.5569C95.883 11.7167 95.1706 11.9559 94.4908 12.27C93.8403 12.5401 93.2073 12.8503 92.5957 13.199C91.9982 13.577 91.5204 13.9709 90.9541 14.3689C89.9497 15.2315 89.0495 16.207 88.2714 17.2759C87.8916 17.8369 87.5476 18.4211 87.2414 19.0249C86.7236 20.0739 86.3582 21.1909 86.1561 22.342C85.8482 24.0473 85.8772 25.7958 86.2415 27.49C86.3572 27.916 86.4277 28.3069 86.5433 28.7249C86.6439 29.0879 86.8199 29.464 86.9165 29.854H85.9005V29.012C85.8837 27.5818 85.4064 26.1947 84.5386 25.054C83.685 24.0559 82.5956 23.2841 81.3681 22.8079C80.0121 22.3389 78.6119 21.93 77.1846 21.522C76.5482 21.3044 75.9463 20.9976 75.3971 20.6108C75.0634 20.2504 74.8199 19.817 74.6862 19.3455C74.5525 18.8739 74.5324 18.3776 74.6276 17.897C74.7155 17.4931 74.8911 17.1131 75.1419 16.7837C75.3928 16.4542 75.713 16.1832 76.0801 15.9895C76.4473 15.7958 76.8525 15.6842 77.2676 15.6624C77.6827 15.6405 78.0975 15.709 78.4832 15.863C79.0722 16.061 79.5772 16.45 79.9172 16.9675C80.2573 17.4851 80.4125 18.1013 80.3581 18.717H85.2236C85.1989 16.8245 84.5441 14.9934 83.3617 13.51C82.7961 12.8592 82.103 12.3296 81.3248 11.9539C81.0813 11.8489 80.9476 11.7879 80.682 11.6799C80.4165 11.5719 80.2123 11.555 79.9779 11.468C79.7435 11.381 78.461 11.19 78.456 11.186H77.0176C76.9562 11.223 75.6416 11.3358 75.3951 11.4128C74.9253 11.5429 74.4676 11.7129 74.0271 11.9209C73.1954 12.2697 72.4505 12.795 71.8443 13.46C69.3296 15.802 68.9957 21.1499 71.3092 23.7209C72.1266 24.5969 73.1206 25.2917 74.2263 25.76C74.8569 26.028 75.5028 26.2589 76.1606 26.4519C76.4956 26.5569 76.8416 26.659 77.1876 26.762C77.5336 26.865 77.8143 27.0241 78.1492 27.1331C78.771 27.3334 79.3311 27.6882 79.7763 28.1641C80.2215 28.6399 80.537 29.221 80.6931 29.8521H71.4269V28.73L71.4309 28.72ZM54 16.303H59.2034V30.824L64.6191 30.9438V16.303H69.8225V11.1299H54V16.303ZM115.727 24.0339C115.727 19.9099 119.961 16.4639 124.232 16.4639H124.401C125.682 16.4695 126.945 16.7578 128.101 17.3081C129.256 17.8584 130.274 18.657 131.081 19.646C132.163 20.9502 132.762 22.5842 132.778 24.2749V25.196C132.72 26.103 132.521 26.9955 132.188 27.842C132.088 28.212 131.205 29.842 130.917 29.842H117.672C117.407 29.842 116.348 27.9301 116.242 27.5911C115.863 26.4443 115.688 25.2404 115.726 24.0339H115.727Z" fill="#F7F7F7"/>
</g>
<defs>
<linearGradient id="paint0_linear_688_5020" x1="2.50842" y1="21.0025" x2="37.0669" y2="21.0025" gradientUnits="userSpaceOnUse">
<stop offset="0.0442708" stop-color="#0F9C9E"/>
<stop offset="0.846354" stop-color="#003529"/>
</linearGradient>
<clipPath id="clip0_688_5020">
<rect width="37" height="42" fill="white"/>
</clipPath>
<clipPath id="clip1_688_5020">
<rect width="171" height="20" fill="white" transform="translate(54 11)"/>
</clipPath>
</defs>
</svg>
