<svg width="16" height="18" viewBox="0 0 16 18" fill="none" xmlns="http://www.w3.org/2000/svg">
<circle cx="7.86584" cy="1.19397" r="1.19397" fill="#FDFDFD"/>
<path d="M10.2524 14.925C10.2524 15.2386 10.1907 15.5491 10.0707 15.8389C9.95065 16.1286 9.77476 16.3918 9.55302 16.6136C9.33128 16.8353 9.06803 17.0112 8.77832 17.1312C8.4886 17.2512 8.17808 17.313 7.86449 17.313C7.55091 17.313 7.24039 17.2512 6.95067 17.1312C6.66095 17.0112 6.39771 16.8353 6.17597 16.6136C5.95423 16.3918 5.77834 16.1286 5.65833 15.8389C5.53833 15.5491 5.47656 15.2386 5.47656 14.925L7.86449 14.925H10.2524Z" fill="#FDFDFD"/>
<mask id="path-3-outside-1_777_1542" maskUnits="userSpaceOnUse" x="0" y="1.3877" width="16" height="14" fill="black">
<rect fill="white" y="1.3877" width="16" height="14"/>
<path d="M12.5707 11.6409V7.18198C12.5707 4.53417 10.4242 2.3877 7.77643 2.3877C5.12862 2.3877 2.98214 4.53417 2.98214 7.18198V11.6409C2.98214 11.6409 1 11.6409 1 13.4319H14.4321C14.4321 11.6409 12.5707 11.6409 12.5707 11.6409Z"/>
</mask>
<path d="M12.5707 11.6409H11.5707V12.6409H12.5707V11.6409ZM2.98214 11.6409V12.6409H3.98214V11.6409H2.98214ZM1 13.4319H0C0 13.9842 0.447715 14.4319 1 14.4319L1 13.4319ZM14.4321 13.4319V14.4319C14.9844 14.4319 15.4321 13.9842 15.4321 13.4319H14.4321ZM11.5707 7.18198V11.6409H13.5707V7.18198H11.5707ZM3.98214 11.6409V7.18198H1.98214V11.6409H3.98214ZM2.98214 11.6409C2.98214 10.6409 2.98169 10.6409 2.98124 10.6409C2.98107 10.6409 2.98061 10.6409 2.98028 10.6409C2.97963 10.6409 2.97894 10.6409 2.97822 10.6409C2.97679 10.6409 2.97522 10.6409 2.97353 10.641C2.97015 10.641 2.96627 10.641 2.96188 10.6411C2.95312 10.6412 2.94238 10.6414 2.92978 10.6418C2.9046 10.6426 2.87185 10.644 2.83257 10.6465C2.75433 10.6516 2.64838 10.6613 2.52352 10.6801C2.27886 10.7169 1.9358 10.7925 1.57936 10.9535C1.22153 11.1151 0.818747 11.3776 0.505036 11.8028C0.182866 12.2394 0 12.787 0 13.4319H2C2 13.1813 2.0649 13.0573 2.11438 12.9902C2.17232 12.9117 2.26508 12.8383 2.40278 12.7761C2.54188 12.7133 2.69435 12.6769 2.82134 12.6578C2.88231 12.6486 2.93121 12.6443 2.96138 12.6424C2.9763 12.6414 2.98613 12.641 2.98999 12.6409C2.9919 12.6409 2.99229 12.6409 2.99103 12.6409C2.9904 12.6409 2.98935 12.6409 2.98788 12.6409C2.98714 12.6409 2.98629 12.6409 2.98534 12.6409C2.98486 12.6409 2.98436 12.6409 2.98382 12.6409C2.98356 12.6409 2.98314 12.6409 2.983 12.6409C2.98258 12.6409 2.98214 12.6409 2.98214 11.6409ZM1 14.4319H14.4321V12.4319H1V14.4319ZM15.4321 13.4319C15.4321 12.801 15.2648 12.2622 14.9632 11.827C14.6674 11.3999 14.2831 11.1312 13.9349 10.9637C13.5898 10.7976 13.2573 10.7196 13.0199 10.6815C12.8988 10.6621 12.7957 10.652 12.7193 10.6468C12.6808 10.6441 12.6487 10.6427 12.6237 10.6419C12.6112 10.6415 12.6004 10.6412 12.5916 10.6411C12.5871 10.641 12.5832 10.641 12.5797 10.641C12.578 10.641 12.5763 10.6409 12.5748 10.6409C12.5741 10.6409 12.5734 10.6409 12.5727 10.6409C12.5723 10.6409 12.5718 10.6409 12.5717 10.6409C12.5712 10.6409 12.5707 10.6409 12.5707 11.6409C12.5707 12.6409 12.5702 12.6409 12.5698 12.6409C12.5696 12.6409 12.5692 12.6409 12.5689 12.6409C12.5683 12.6409 12.5678 12.6409 12.5673 12.6409C12.5662 12.6409 12.5653 12.6409 12.5644 12.6409C12.5627 12.6409 12.5614 12.6409 12.5605 12.6409C12.5587 12.6408 12.5584 12.6408 12.5596 12.6409C12.5618 12.6409 12.5696 12.6412 12.5821 12.6421C12.6074 12.6438 12.6498 12.6477 12.7032 12.6563C12.8148 12.6742 12.9477 12.7081 13.0679 12.7659C13.1851 12.8223 13.2662 12.8893 13.3193 12.966C13.3668 13.0345 13.4321 13.1672 13.4321 13.4319H15.4321ZM7.77643 3.3877C9.87195 3.3877 11.5707 5.08645 11.5707 7.18198H13.5707C13.5707 3.98188 10.9765 1.3877 7.77643 1.3877V3.3877ZM7.77643 1.3877C4.57633 1.3877 1.98214 3.98188 1.98214 7.18198H3.98214C3.98214 5.08645 5.6809 3.3877 7.77643 3.3877V1.3877Z" fill="#FDFDFD" mask="url(#path-3-outside-1_777_1542)"/>
</svg>
