<svg width="16" height="18" viewBox="0 0 16 18" fill="none" xmlns="http://www.w3.org/2000/svg">
<circle cx="7.86535" cy="1.19397" r="1.19397" fill="white"/>
<path d="M10.2534 14.925C10.2534 15.2386 10.1916 15.5491 10.0716 15.8389C9.95163 16.1286 9.77573 16.3918 9.55399 16.6136C9.33225 16.8353 9.06901 17.0112 8.77929 17.1312C8.48957 17.2512 8.17906 17.313 7.86547 17.313C7.55188 17.313 7.24137 17.2512 6.95165 17.1312C6.66193 17.0112 6.39869 16.8353 6.17695 16.6136C5.95521 16.3918 5.77931 16.1286 5.65931 15.8389C5.5393 15.5491 5.47754 15.2386 5.47754 14.925L7.86547 14.925H10.2534Z" fill="white"/>
<mask id="path-3-outside-1_278_2048" maskUnits="userSpaceOnUse" x="0" y="1.38867" width="16" height="14" fill="black">
<rect fill="white" y="1.38867" width="16" height="14"/>
<path d="M12.5707 11.6419V7.18295C12.5707 4.53514 10.4242 2.38867 7.77643 2.38867C5.12862 2.38867 2.98214 4.53514 2.98214 7.18295V11.6419C2.98214 11.6419 1 11.6419 1 13.4329H14.4321C14.4321 11.6419 12.5707 11.6419 12.5707 11.6419Z"/>
</mask>
<path d="M12.5707 11.6419H11.5707V12.6419H12.5707V11.6419ZM2.98214 11.6419V12.6419H3.98214V11.6419H2.98214ZM1 13.4329H0C0 13.9851 0.447715 14.4329 1 14.4329L1 13.4329ZM14.4321 13.4329V14.4329C14.9844 14.4329 15.4321 13.9851 15.4321 13.4329H14.4321ZM11.5707 7.18295V11.6419H13.5707V7.18295H11.5707ZM3.98214 11.6419V7.18295H1.98214V11.6419H3.98214ZM2.98214 11.6419C2.98214 10.6419 2.98169 10.6419 2.98123 10.6419C2.98107 10.6419 2.98061 10.6419 2.98028 10.6419C2.97963 10.6419 2.97894 10.6419 2.97822 10.6419C2.97679 10.6419 2.97522 10.6419 2.97353 10.6419C2.97015 10.642 2.96627 10.642 2.96188 10.6421C2.95312 10.6422 2.94238 10.6424 2.92978 10.6428C2.9046 10.6436 2.87185 10.6449 2.83257 10.6475C2.75433 10.6525 2.64838 10.6622 2.52352 10.681C2.27886 10.7179 1.9358 10.7934 1.57936 10.9545C1.22153 11.1161 0.818747 11.3786 0.505036 11.8037C0.182866 12.2404 0 12.7879 0 13.4329H2C2 13.1823 2.0649 13.0582 2.11438 12.9912C2.17232 12.9127 2.26508 12.8393 2.40278 12.7771C2.54188 12.7142 2.69435 12.6779 2.82134 12.6587C2.88231 12.6496 2.93121 12.6453 2.96138 12.6433C2.9763 12.6424 2.98613 12.642 2.98999 12.6419C2.9919 12.6418 2.99229 12.6418 2.99103 12.6419C2.9904 12.6419 2.98935 12.6419 2.98788 12.6419C2.98714 12.6419 2.98629 12.6419 2.98534 12.6419C2.98486 12.6419 2.98436 12.6419 2.98382 12.6419C2.98356 12.6419 2.98314 12.6419 2.983 12.6419C2.98258 12.6419 2.98214 12.6419 2.98214 11.6419ZM1 14.4329H14.4321V12.4329H1V14.4329ZM15.4321 13.4329C15.4321 12.802 15.2648 12.2631 14.9632 11.8279C14.6674 11.4009 14.2831 11.1321 13.9349 10.9646C13.5898 10.7986 13.2573 10.7206 13.0199 10.6825C12.8988 10.6631 12.7957 10.653 12.7193 10.6478C12.6808 10.6451 12.6487 10.6437 12.6237 10.6429C12.6112 10.6425 12.6004 10.6422 12.5916 10.6421C12.5871 10.642 12.5832 10.642 12.5797 10.6419C12.578 10.6419 12.5763 10.6419 12.5748 10.6419C12.5741 10.6419 12.5734 10.6419 12.5727 10.6419C12.5723 10.6419 12.5718 10.6419 12.5717 10.6419C12.5712 10.6419 12.5707 10.6419 12.5707 11.6419C12.5707 12.6419 12.5702 12.6419 12.5698 12.6419C12.5696 12.6419 12.5692 12.6419 12.5689 12.6419C12.5683 12.6419 12.5678 12.6419 12.5673 12.6419C12.5662 12.6419 12.5653 12.6419 12.5644 12.6419C12.5627 12.6419 12.5614 12.6419 12.5605 12.6418C12.5587 12.6418 12.5584 12.6418 12.5596 12.6418C12.5618 12.6419 12.5696 12.6422 12.5821 12.643C12.6074 12.6448 12.6498 12.6487 12.7032 12.6573C12.8148 12.6752 12.9477 12.7091 13.0679 12.7669C13.1851 12.8233 13.2662 12.8903 13.3193 12.967C13.3668 13.0355 13.4321 13.1682 13.4321 13.4329H15.4321ZM7.77643 3.38867C9.87195 3.38867 11.5707 5.08743 11.5707 7.18295H13.5707C13.5707 3.98286 10.9765 1.38867 7.77643 1.38867V3.38867ZM7.77643 1.38867C4.57633 1.38867 1.98214 3.98286 1.98214 7.18295H3.98214C3.98214 5.08743 5.6809 3.38867 7.77643 3.38867V1.38867Z" fill="white" mask="url(#path-3-outside-1_278_2048)"/>
</svg>
