<svg width="14" height="14" viewBox="0 0 14 14" fill="none" xmlns="http://www.w3.org/2000/svg">
<path d="M6.39894 0.0821763L0.157302 4.91405C0.0594092 4.98933 -0.000418459 5.11152 2.2038e-06 5.23497V13.2883C2.2038e-06 13.4991 0.19185 13.691 0.402653 13.691H4.63086C4.84167 13.691 5.03351 13.4991 5.03351 13.2883V10.4696C5.03351 9.57032 5.74486 8.85882 6.64429 8.85882C7.54357 8.85882 8.25507 9.57018 8.25507 10.4696V13.2883C8.25507 13.4991 8.44692 13.691 8.65772 13.691H12.8859C13.0967 13.691 13.2886 13.4991 13.2886 13.2883V5.23497C13.2886 5.11152 13.2292 4.98933 13.1313 4.91405L6.88964 0.0821763C6.73922 -0.0356562 6.52927 -0.0188045 6.39879 0.0821763H6.39894ZM6.6443 0.906461L12.4832 5.43021V12.886H9.06045V10.4699C9.06045 9.13837 7.97593 8.05385 6.64437 8.05385C5.31281 8.05385 4.22829 9.13837 4.22829 10.4699V12.886H0.80549V5.43021L6.6443 0.906461Z" fill="white"/>
</svg>
