<svg width="11" height="8" viewBox="0 0 11 8" fill="none" xmlns="http://www.w3.org/2000/svg">
<g clip-path="url(#clip0_316_20418)">
<path d="M10.91 4.33907L9.84781 3.12919C9.78065 3.05276 9.68349 3.00411 9.57765 2.99393C9.4718 2.98375 9.36592 3.01286 9.28323 3.07488L7.97586 4.05899C7.90181 4.12366 7.85693 4.21187 7.85023 4.30592C7.84353 4.39998 7.87551 4.49289 7.93974 4.566C8.00398 4.63911 8.09571 4.68701 8.19651 4.70006C8.29731 4.71311 8.39971 4.69035 8.48314 4.63636L9.0184 4.23293C8.88408 5.92045 7.35979 7.25576 5.50373 7.25576C4.85967 7.25623 4.22782 7.09302 3.677 6.78391C3.58584 6.73264 3.47641 6.71701 3.3728 6.74045C3.26918 6.7639 3.17987 6.8245 3.12451 6.90892C3.06914 6.99335 3.05226 7.09468 3.07758 7.19064C3.10289 7.28659 3.16833 7.3693 3.2595 7.42057C3.93597 7.80056 4.71209 8.00135 5.50328 8.00105C7.7867 8.00105 9.66066 6.35602 9.82028 4.27874L10.2861 4.80843C10.3541 4.88279 10.4508 4.92953 10.5555 4.9386C10.6602 4.94767 10.7646 4.91835 10.8463 4.85693C10.9279 4.79552 10.9803 4.70691 10.9922 4.61012C11.0041 4.51334 10.9745 4.4161 10.9098 4.33928L10.91 4.33907ZM3.0766 3.55501C3.00426 3.48261 2.90391 3.43967 2.79748 3.43559C2.69105 3.43151 2.58721 3.46662 2.50866 3.53325L2.00048 3.96632C2.00851 3.40803 2.17098 2.86097 2.47237 2.37741C2.77377 1.89384 3.20403 1.48992 3.72204 1.20423C4.24005 0.918536 4.82851 0.760623 5.4312 0.745573C6.0339 0.730522 6.63069 0.858836 7.16458 1.11826C7.21133 1.14179 7.26266 1.15649 7.3156 1.1615C7.36853 1.16652 7.42201 1.16174 7.47294 1.14746C7.52387 1.13318 7.57123 1.10967 7.61227 1.07831C7.6533 1.04694 7.68721 1.00834 7.71201 0.96474C7.7368 0.921142 7.75201 0.873417 7.75673 0.824334C7.76145 0.775252 7.7556 0.725789 7.73952 0.678817C7.72343 0.631846 7.69743 0.5883 7.66303 0.550708C7.62862 0.513116 7.5865 0.482227 7.5391 0.459832C6.88282 0.140352 6.14892 -0.0176453 5.40776 0.000988254C4.6666 0.0196218 3.94303 0.214261 3.30643 0.566246C2.66983 0.91823 2.14155 1.41576 1.77222 2.01113C1.4029 2.60649 1.20492 3.27974 1.19726 3.96632L0.697597 3.46317C0.62342 3.39867 0.525635 3.36254 0.42388 3.36204C0.322125 3.36154 0.223934 3.39672 0.149026 3.46049C0.0741182 3.52427 0.0280402 3.61194 0.0200452 3.70588C0.0120503 3.79982 0.0427306 3.89309 0.105925 3.96694L1.24651 5.11484C1.28219 5.15085 1.3252 5.18 1.37306 5.20059C1.42093 5.22119 1.47271 5.23284 1.52545 5.23487H1.54224C1.64311 5.23487 1.74029 5.19972 1.81445 5.1364L3.05354 4.08035C3.09239 4.0473 3.12382 4.00748 3.14604 3.96317C3.16826 3.91887 3.18083 3.87094 3.18304 3.82213C3.18524 3.77332 3.17704 3.72459 3.15889 3.67872C3.14074 3.63285 3.113 3.59074 3.07727 3.55481L3.0766 3.55501Z" fill="white"/>
</g>
<defs>
<clipPath id="clip0_316_20418">
<rect width="11" height="8" fill="white"/>
</clipPath>
</defs>
</svg>
