<svg width="20" height="19" viewBox="0 0 20 19" fill="none" xmlns="http://www.w3.org/2000/svg">
<g clip-path="url(#clip0_278_2005)">
<path d="M9.57252 0.033981C9.99048 -0.0250185 10.4165 -0.00234205 10.8252 0.100665C11.2339 0.203672 11.6171 0.384913 11.9519 0.633643C12.3916 0.95846 12.7283 1.43319 12.9352 1.93291C12.9796 2.05661 13.0404 2.1742 13.1162 2.28271C13.2331 2.43988 13.3892 2.56586 13.5701 2.64889C13.7511 2.73191 13.9508 2.76926 14.1507 2.75745C14.3318 2.75745 14.487 2.68249 14.6675 2.63252C15.4009 2.43452 16.1841 2.50572 16.8664 2.8324C17.5129 3.13223 18.0561 3.68014 18.3664 4.33156C18.6768 4.95621 18.7285 5.70623 18.5475 6.38085C18.4934 6.58828 18.4159 6.78937 18.3165 6.98051C18.239 7.15541 18.1096 7.30533 18.0579 7.48023C17.9286 7.85457 18.0579 8.30476 18.3424 8.60459C18.4717 8.72952 18.6269 8.80448 18.7581 8.92941C19.2273 9.26546 19.5861 9.72531 19.7912 10.2537C20.0535 10.9016 20.0718 11.6179 19.8429 12.2775C19.6671 12.8353 19.326 13.3312 18.8618 13.7038C18.3976 14.0765 17.8306 14.3097 17.2308 14.3746C16.8945 14.425 16.5842 14.5976 16.4031 14.8497C16.2221 15.0728 16.1722 15.3744 16.1962 15.6493C16.248 16.174 16.1704 16.7237 15.9371 17.1984C15.667 17.7833 15.215 18.2723 14.644 18.5976C14.2115 18.843 13.7227 18.981 13.2215 18.9992C12.4268 19.0175 11.6533 18.7503 11.0509 18.2492C10.8962 18.1242 10.7664 17.9743 10.5858 17.8994C10.3704 17.7908 10.1254 17.7493 9.88463 17.7807C9.64383 17.812 9.41897 17.9145 9.24092 18.0743C9.00129 18.3005 8.73001 18.4932 8.435 18.6467C7.99533 18.8698 7.47807 18.9715 6.98667 18.9965C6.65045 18.9715 6.31423 18.9465 6.00388 18.8216C5.28095 18.5966 4.66644 18.127 4.27336 17.4991C3.93473 16.9407 3.78129 16.2954 3.83369 15.6502C3.86175 15.3502 3.78003 15.0502 3.60277 14.8024C3.39699 14.5553 3.10061 14.3943 2.77515 14.3527C2.12857 14.2777 1.482 14.0029 1.01646 13.5531C0.473336 13.0784 0.138963 12.3788 0.0336638 11.6792C-0.0448003 11.144 0.035263 10.5982 0.264584 10.1051C0.471489 9.62991 0.833571 9.20559 1.27324 8.88033C1.40256 8.78083 1.55774 8.70543 1.66073 8.58095C1.7976 8.44405 1.8975 8.27672 1.95163 8.09371C2.00575 7.9107 2.01243 7.71763 1.97108 7.53154C1.94522 7.38162 1.86809 7.25669 1.79004 7.12998C1.47969 6.60528 1.29865 6.00606 1.35037 5.40595C1.37623 4.73133 1.68659 4.0817 2.15213 3.55699C2.57742 3.09398 3.13555 2.76351 3.75564 2.60753C4.25546 2.48285 4.77988 2.48285 5.27971 2.60753C5.46075 2.6575 5.64179 2.73246 5.82283 2.73246C6.02918 2.74271 6.23485 2.70225 6.42062 2.61486C6.60638 2.52747 6.76618 2.396 6.88507 2.23274C6.96279 2.12858 7.01577 2.00914 7.04025 1.88294C7.27572 1.30849 7.68035 0.813338 8.20408 0.458742C8.63602 0.25083 9.09825 0.107748 9.57483 0.0344276L9.57252 0.033981ZM9.79328 1.41401C9.45107 1.4686 9.1443 1.64975 8.93795 1.91908C8.7994 2.10558 8.7449 2.31841 8.66084 2.53123C8.32459 3.21252 7.75202 3.75855 7.04252 4.07453C6.33302 4.39052 5.53138 4.45652 4.77676 4.26106C4.61143 4.23474 4.44609 4.15487 4.28075 4.15487C4.04541 4.12464 3.80605 4.16156 3.59214 4.26106C3.23422 4.42079 2.98621 4.74026 2.87583 5.11281C2.81614 5.33227 2.82579 5.56395 2.90354 5.77806C2.98621 5.99089 3.12384 6.15062 3.20651 6.33712C3.41029 6.74148 3.52303 7.18298 3.53728 7.63251C3.55153 8.08204 3.46697 8.52938 3.28918 8.94503C3.07138 9.47234 2.70913 9.93243 2.24126 10.276C2.07638 10.4098 1.88334 10.5151 1.74571 10.6485C1.4686 10.9412 1.38732 11.3401 1.4686 11.7127C1.55127 12.0589 1.77157 12.3779 2.07454 12.5376C2.24836 12.6185 2.4343 12.6724 2.62551 12.6974C3.28054 12.7805 3.89523 13.0498 4.39159 13.471C4.96981 13.9498 5.35591 14.6418 5.49308 15.3606C5.54422 15.6685 5.55354 15.9815 5.52079 16.2918C5.49308 16.5849 5.57575 16.9039 5.7688 17.1168C5.90762 17.2871 6.08918 17.4203 6.29625 17.5039C6.50332 17.5874 6.72905 17.6185 6.95203 17.5942C7.22914 17.5674 7.47576 17.4344 7.66835 17.2747C7.81181 17.1364 7.96862 17.0116 8.13665 16.9021C8.76521 16.4709 9.52945 16.2642 10.2984 16.3176C11.0674 16.371 11.7932 16.6812 12.3514 17.1948C12.4938 17.3311 12.6621 17.4396 12.847 17.5143C13.2603 17.674 13.7286 17.5674 14.0865 17.3278C14.3346 17.1413 14.5276 16.8491 14.5549 16.5564C14.5826 16.3431 14.5276 16.1039 14.5549 15.8907C14.5564 15.4459 14.6526 15.0061 14.8374 14.5987C15.0222 14.1913 15.2916 13.825 15.6291 13.5224C16.1365 13.0573 16.7831 12.7592 17.4765 12.6706C17.807 12.6395 18.1126 12.4872 18.3304 12.245C18.5779 11.9518 18.6883 11.5262 18.5779 11.1536C18.5478 11.012 18.4884 10.8776 18.4033 10.7587C18.3181 10.6398 18.209 10.5387 18.0824 10.4616C17.9149 10.3615 17.758 10.2457 17.6141 10.1158C17.0614 9.63075 16.6848 8.98693 16.5398 8.27933C16.399 7.51898 16.5456 6.73507 16.9527 6.07031C17.0913 5.85748 17.173 5.64466 17.173 5.40506C17.1681 5.18702 17.1077 4.9735 16.9973 4.78328C16.8869 4.59306 16.7298 4.43196 16.5398 4.31416C16.3141 4.18746 16.0568 4.12296 15.7958 4.12765C15.5755 4.15398 15.3552 4.23384 15.1349 4.28739C14.3528 4.47305 13.527 4.36861 12.8206 3.99469C12.1928 3.67181 11.6831 3.17004 11.3608 2.55756C11.2508 2.34473 11.1954 2.10513 11.0301 1.91863C10.728 1.5202 10.2597 1.33369 9.79143 1.41356L9.79328 1.41401Z" fill="white"/>
<path d="M9.75319 6.38021C10.497 6.32777 11.2391 6.50258 11.8744 6.87993C12.51 7.26497 13.0011 7.83678 13.2754 8.51138C13.5497 9.18597 13.5929 9.92777 13.3985 10.6278C13.2113 11.2754 12.834 11.8568 12.3123 12.3019C11.795 12.7266 11.1484 13.026 10.476 13.1014C9.71762 13.1973 8.94739 13.0566 8.27761 12.6999C7.63065 12.3455 7.11542 11.8036 6.8048 11.1507C6.44492 10.3979 6.38956 9.54231 6.64963 8.75208C6.85993 8.10266 7.26497 7.52813 7.81346 7.10123C8.37602 6.6872 9.04866 6.43593 9.75319 6.37664V6.38021ZM9.72733 8.07568C9.18421 8.15064 8.69281 8.50044 8.43418 8.97517C8.29348 9.24048 8.22665 9.53658 8.24025 9.83439C8.25386 10.1322 8.34743 10.4215 8.51177 10.6738C8.71804 11.0033 9.03888 11.2513 9.41697 11.3734C9.74238 11.4775 10.0908 11.4949 10.4256 11.4238C10.8413 11.3488 11.2015 11.0985 11.4602 10.7742C11.6615 10.5231 11.7788 10.2186 11.7964 9.90144C11.8222 9.52709 11.7446 9.12732 11.5119 8.82749C11.3215 8.53527 11.0411 8.30807 10.7101 8.17785C10.3984 8.05746 10.0582 8.02272 9.72733 8.07746V8.07568Z" fill="white"/>
</g>
<defs>
<clipPath id="clip0_278_2005">
<rect width="20" height="19" fill="white"/>
</clipPath>
</defs>
</svg>
