<svg width="23" height="23" viewBox="0 0 23 23" fill="none" xmlns="http://www.w3.org/2000/svg">
<circle cx="11.5" cy="11.5" r="11.5" fill="#474D84"/>
<path d="M16.7363 9.0728L16.5051 8.51277C17.298 6.68357 17.2463 6.62917 17.0914 6.47277L16.0782 5.462L15.9776 5.37481H15.8606C15.7982 5.37481 15.6143 5.37481 14.0734 6.08736L13.5063 5.85373C12.7734 4 12.6986 4 12.481 4H11.0535C10.8385 4 10.7555 4 10.0769 5.86053L9.51253 6.0944C8.47213 5.6456 7.8611 5.4144 7.69693 5.4144H7.56069L6.47269 6.5024C6.3056 6.6724 6.24707 6.72801 7.08614 8.5288L6.85494 9.08737C5 9.8191 5 9.8888 5 10.1198V11.5451C5 11.7692 5 11.8482 6.86174 12.5296L7.09294 13.0882C6.30001 14.9174 6.3532 14.9718 6.50693 15.1282L7.52086 16.1385L7.62164 16.2271H7.73991C7.80111 16.2271 7.98277 16.2271 9.52564 15.5131L10.0913 15.7499C10.8244 17.601 10.8992 17.601 11.121 17.601H12.5448C12.7634 17.601 12.8414 17.601 13.5228 15.7419L14.0892 15.5071C15.1296 15.9559 15.7374 16.1871 15.9021 16.1871H16.0381L17.137 15.0893C17.2934 14.9291 17.3478 14.8732 16.5141 13.0792L16.7438 12.5206C18.6002 11.7807 18.6002 11.7032 18.6002 11.4802V10.0547C18.6002 9.83027 18.6002 9.75134 16.7356 9.0728H16.7363ZM11.801 13.1788C11.2493 13.1807 10.7141 12.9913 10.2866 12.6427C9.85905 12.2941 9.56568 11.808 9.45651 11.2673C9.34734 10.7266 9.42914 10.1647 9.68794 9.67755C9.94675 9.1904 10.3665 8.80812 10.8757 8.5959C11.3849 8.38368 11.9519 8.35467 12.4801 8.51382C13.0083 8.67297 13.4649 9.01042 13.772 9.46862C14.0792 9.92682 14.2179 10.4774 14.1645 11.0264C14.1111 11.5755 13.8688 12.089 13.4791 12.4794C13.0343 12.9254 12.4309 13.1769 11.801 13.1788Z" fill="white"/>
</svg>
