<svg width="20" height="12" viewBox="0 0 20 12" fill="none" xmlns="http://www.w3.org/2000/svg">
<path d="M19.8805 6.03711C19.701 6.25651 15.4192 11.4062 9.99995 11.4062C4.5807 11.4062 0.2991 6.25635 0.119413 6.03711C-0.0398043 5.84287 -0.0398043 5.56314 0.119413 5.36876C0.298934 5.14936 4.5807 -0.000380796 9.99995 -0.000380796C15.4192 -0.000380796 19.7008 5.14952 19.8805 5.36876C20.0398 5.563 20.0398 5.84288 19.8805 6.03711V6.03711ZM9.99995 1.05446C5.8419 1.05446 2.26059 4.58545 1.23144 5.70297C2.26044 6.82057 5.84153 10.3515 9.99995 10.3515C14.1584 10.3515 17.7393 6.8205 18.7685 5.70297C17.7395 4.58537 14.1584 1.05446 9.99995 1.05446V1.05446Z" fill="white"/>
<path d="M10.0001 9.39258C7.96514 9.39258 6.30957 7.73716 6.30957 5.70206C6.30957 3.66711 7.96514 2.01154 10.0001 2.01154C12.035 2.01154 13.6906 3.66711 13.6906 5.70206C13.6906 7.73701 12.035 9.39258 10.0001 9.39258V9.39258ZM10.0001 3.06623C8.54669 3.06623 7.36434 4.24859 7.36434 5.70198C7.36434 7.15538 8.54669 8.33774 10.0001 8.33774C11.4535 8.33774 12.6358 7.15538 12.6358 5.70198C12.6358 4.24859 11.4535 3.06623 10.0001 3.06623Z" fill="white"/>
</svg>
