<svg width="17" height="25" viewBox="0 0 17 25" fill="none" xmlns="http://www.w3.org/2000/svg">
<path d="M9.04387 1.13635C8.86095 1.13635 8.68011 1.13635 8.50135 1.13635C8.32051 1.13635 8.13343 1.13635 7.95883 1.13635C2.73942 1.48361 -0.322379 7.08843 2.00359 11.6698L7.42255 23.2091C7.52202 23.4056 7.67576 23.571 7.86639 23.6867C8.05701 23.8023 8.27695 23.8636 8.50135 23.8636C8.72575 23.8636 8.94568 23.8023 9.13631 23.6867C9.32694 23.571 9.48067 23.4056 9.58015 23.2091L14.9991 11.6698C17.3188 7.08843 14.2633 1.48361 9.04387 1.13635ZM8.50135 11.0666C7.80399 11.0678 7.12194 10.8668 6.54159 10.4891C5.96124 10.1113 5.50869 9.5738 5.24125 8.94459C4.97381 8.31539 4.90351 7.62279 5.03926 6.95453C5.17501 6.28626 5.51069 5.67238 6.0038 5.19062C6.49691 4.70887 7.12527 4.38092 7.80929 4.2483C8.49332 4.11568 9.20224 4.18436 9.84629 4.44564C10.4903 4.70692 11.0405 5.14904 11.4272 5.71602C11.8139 6.28301 12.0196 6.94934 12.0184 7.63064C12.0167 8.54143 11.6456 9.41445 10.9864 10.0585C10.3272 10.7025 9.43361 11.065 8.50135 11.0666Z" fill="#E0E0E0"/>
</svg>
