<svg width="20" height="21" viewBox="0 0 20 21" fill="none" xmlns="http://www.w3.org/2000/svg">
<circle cx="10.2284" cy="1.43107" r="1.43107" fill="white"/>
<path d="M13.0905 17.8895C13.0905 18.2653 13.0165 18.6375 12.8726 18.9848C12.7288 19.332 12.518 19.6476 12.2522 19.9133C11.9864 20.1791 11.6709 20.3899 11.3236 20.5338C10.9764 20.6776 10.6042 20.7516 10.2284 20.7516C9.85249 20.7516 9.48031 20.6776 9.13306 20.5338C8.78581 20.3899 8.47029 20.1791 8.20451 19.9133C7.93874 19.6476 7.72791 19.332 7.58408 18.9848C7.44024 18.6375 7.36621 18.2653 7.36621 17.8895L10.2284 17.8895H13.0905Z" fill="white"/>
<mask id="path-3-outside-1_278_1985" maskUnits="userSpaceOnUse" x="0" y="0.863281" width="20" height="17" fill="black">
<rect fill="white" y="0.863281" width="20" height="17"/>
<path d="M15.8685 13.9541V8.60965C15.8685 5.43602 13.2958 2.86328 10.1221 2.86328C6.9485 2.86328 4.37577 5.43602 4.37577 8.60965V13.9541C4.37577 13.9541 2 13.9541 2 16.1007H18.0996C18.0996 13.9541 15.8685 13.9541 15.8685 13.9541Z"/>
</mask>
<path d="M15.8685 13.9541H14.3685V15.4541H15.8685V13.9541ZM4.37577 13.9541V15.4541H5.87577V13.9541H4.37577ZM2 16.1007H0.5C0.5 16.9291 1.17157 17.6007 2 17.6007L2 16.1007ZM18.0996 16.1007V17.6007C18.928 17.6007 19.5996 16.9291 19.5996 16.1007H18.0996ZM14.3685 8.60965V13.9541H17.3685V8.60965H14.3685ZM5.87577 13.9541V8.60965H2.87577V13.9541H5.87577ZM4.37577 13.9541C4.37577 12.4541 4.3751 12.4541 4.37442 12.4541C4.37418 12.4541 4.37348 12.4541 4.373 12.4541C4.37204 12.4541 4.37104 12.4541 4.37 12.4541C4.36792 12.4541 4.36568 12.4541 4.36329 12.4541C4.35851 12.4542 4.3531 12.4542 4.3471 12.4543C4.33509 12.4545 4.32065 12.4548 4.30393 12.4553C4.27054 12.4563 4.22783 12.4581 4.17708 12.4614C4.07606 12.4679 3.94047 12.4804 3.78119 12.5043C3.47021 12.5512 3.03029 12.6476 2.57032 12.8554C2.10825 13.0642 1.57876 13.4073 1.1642 13.9691C0.736959 14.5482 0.5 15.2683 0.5 16.1007H3.5C3.5 15.8598 3.56001 15.7749 3.57822 15.7503C3.60913 15.7084 3.67357 15.649 3.80544 15.5894C3.93942 15.5289 4.09344 15.4912 4.22792 15.4709C4.29137 15.4613 4.34138 15.457 4.37029 15.4552C4.3845 15.4542 4.39283 15.454 4.39424 15.4539C4.39493 15.4539 4.39383 15.4539 4.39081 15.454C4.3893 15.454 4.3873 15.454 4.3848 15.4541C4.38355 15.4541 4.38218 15.4541 4.38067 15.4541C4.37992 15.4541 4.37913 15.4541 4.37832 15.4541C4.37791 15.4541 4.37727 15.4541 4.37707 15.4541C4.37642 15.4541 4.37577 15.4541 4.37577 13.9541ZM2 17.6007H18.0996V14.6007H2V17.6007ZM19.5996 16.1007C19.5996 15.2894 19.3836 14.5823 18.9839 14.0054C18.5927 13.4408 18.0865 13.0882 17.6343 12.8707C17.1867 12.6554 16.7581 12.5552 16.4546 12.5065C16.2992 12.4816 16.1666 12.4686 16.0672 12.4618C16.0173 12.4584 15.975 12.4564 15.9416 12.4554C15.9249 12.4548 15.9104 12.4545 15.8982 12.4543C15.8921 12.4542 15.8865 12.4542 15.8816 12.4541C15.8791 12.4541 15.8768 12.4541 15.8746 12.4541C15.8735 12.4541 15.8724 12.4541 15.8714 12.4541C15.8709 12.4541 15.8702 12.4541 15.8699 12.4541C15.8692 12.4541 15.8685 12.4541 15.8685 13.9541C15.8685 15.4541 15.8678 15.4541 15.8671 15.4541C15.8669 15.4541 15.8662 15.4541 15.8658 15.4541C15.8649 15.4541 15.864 15.4541 15.8632 15.4541C15.8616 15.4541 15.8601 15.4541 15.8587 15.454C15.8559 15.454 15.8535 15.454 15.8516 15.454C15.8478 15.4539 15.8458 15.4538 15.8455 15.4538C15.8448 15.4538 15.8505 15.454 15.8615 15.4547C15.8841 15.4563 15.9258 15.4601 15.9796 15.4687C16.0944 15.4871 16.2236 15.5211 16.3337 15.5741C16.4394 15.6249 16.4909 15.6749 16.518 15.714C16.5366 15.7408 16.5996 15.8387 16.5996 16.1007H19.5996ZM10.1221 4.36328C12.4673 4.36328 14.3685 6.26444 14.3685 8.60965H17.3685C17.3685 4.60759 14.1242 1.36328 10.1221 1.36328V4.36328ZM10.1221 1.36328C6.12008 1.36328 2.87577 4.60759 2.87577 8.60965H5.87577C5.87577 6.26445 7.77693 4.36328 10.1221 4.36328V1.36328Z" fill="white" mask="url(#path-3-outside-1_278_1985)"/>
</svg>
