<svg width="21" height="23" viewBox="0 0 21 23" fill="none" xmlns="http://www.w3.org/2000/svg">
<ellipse cx="10.5483" cy="1.99922" rx="1.43107" ry="1.49922" fill="#ABABAB"/>
<path d="M13.4118 19.2406C13.4118 19.6344 13.3378 20.0243 13.1939 20.3881C13.0501 20.7519 12.8393 21.0824 12.5735 21.3608C12.3077 21.6393 11.9922 21.8601 11.6449 22.0108C11.2977 22.1615 10.9255 22.2391 10.5496 22.2391C10.1738 22.2391 9.8016 22.1615 9.45435 22.0108C9.1071 21.8601 8.79158 21.6393 8.5258 21.3608C8.26003 21.0824 8.0492 20.7519 7.90537 20.3881C7.76153 20.0243 7.6875 19.6344 7.6875 19.2406L10.5496 19.2406H13.4118Z" fill="#ABABAB"/>
<mask id="path-3-outside-1_777_2980" maskUnits="userSpaceOnUse" x="0.320312" y="1.49902" width="20" height="18" fill="black">
<rect fill="white" x="0.320312" y="1.49902" width="20" height="18"/>
<path d="M16.1888 15.118V9.24539C16.1888 6.07176 13.6161 3.49902 10.4424 3.49902C7.26882 3.49902 4.69608 6.07176 4.69608 9.24539V15.118C4.69608 15.118 2.32031 15.118 2.32031 17.3668H18.4199C18.4199 15.118 16.1888 15.118 16.1888 15.118Z"/>
</mask>
<path d="M16.1888 15.118H14.6888V16.618H16.1888V15.118ZM4.69608 15.118V16.618H6.19608V15.118H4.69608ZM2.32031 17.3668H0.820312C0.820312 18.1952 1.49189 18.8668 2.32031 18.8668L2.32031 17.3668ZM18.4199 17.3668V18.8668C19.2483 18.8668 19.9199 18.1952 19.9199 17.3668H18.4199ZM14.6888 9.24539V15.118H17.6888V9.24539H14.6888ZM6.19608 15.118V9.24539H3.19608V15.118H6.19608ZM4.69608 15.118C4.69608 13.618 4.69538 13.618 4.69466 13.618C4.69441 13.618 4.69369 13.618 4.69319 13.618C4.69219 13.618 4.69114 13.618 4.69006 13.618C4.68789 13.618 4.68557 13.618 4.68309 13.618C4.67813 13.618 4.67255 13.6181 4.66637 13.6182C4.654 13.6184 4.63919 13.6187 4.6221 13.6193C4.58795 13.6203 4.54442 13.6223 4.49281 13.6258C4.39009 13.6327 4.25253 13.646 4.09112 13.6714C3.77569 13.7212 3.33075 13.8235 2.86651 14.0432C2.39833 14.2648 1.87255 14.6245 1.46516 15.203C1.04823 15.7949 0.820312 16.5246 0.820312 17.3668H3.82031C3.82031 17.0845 3.88937 16.9709 3.91789 16.9304C3.95596 16.8764 4.02412 16.8144 4.14988 16.7549C4.27959 16.6935 4.42859 16.6553 4.55862 16.6348C4.61993 16.6251 4.66798 16.6208 4.69518 16.6189C4.70854 16.618 4.71605 16.6178 4.71671 16.6178C4.71701 16.6178 4.71554 16.6178 4.71216 16.6179C4.71047 16.6179 4.7083 16.6179 4.70563 16.6179C4.70429 16.6179 4.70283 16.6179 4.70124 16.6179C4.70044 16.618 4.69962 16.618 4.69876 16.618C4.69833 16.618 4.69766 16.618 4.69744 16.618C4.69677 16.618 4.69608 16.618 4.69608 15.118ZM2.32031 18.8668H18.4199V15.8668H2.32031V18.8668ZM19.9199 17.3668C19.9199 16.5445 19.7118 15.828 19.3224 15.2392C18.9388 14.6593 18.4372 14.2903 17.9794 14.0596C17.5278 13.832 17.0941 13.7256 16.7859 13.6738C16.6283 13.6473 16.4936 13.6335 16.3924 13.6262C16.3415 13.6226 16.2984 13.6205 16.2642 13.6194C16.2471 13.6188 16.2322 13.6184 16.2196 13.6182C16.2133 13.6181 16.2076 13.6181 16.2024 13.618C16.1999 13.618 16.1974 13.618 16.1952 13.618C16.194 13.618 16.1929 13.618 16.1919 13.618C16.1913 13.618 16.1906 13.618 16.1903 13.618C16.1896 13.618 16.1888 13.618 16.1888 15.118C16.1888 16.618 16.1881 16.618 16.1874 16.618C16.1871 16.618 16.1864 16.618 16.1859 16.618C16.185 16.618 16.1841 16.618 16.1833 16.6179C16.1815 16.6179 16.1799 16.6179 16.1784 16.6179C16.1754 16.6179 16.1729 16.6179 16.1708 16.6178C16.1667 16.6178 16.1643 16.6177 16.1635 16.6177C16.162 16.6176 16.1668 16.6177 16.177 16.6185C16.1978 16.62 16.2374 16.6237 16.2889 16.6324C16.399 16.6509 16.5231 16.6851 16.6293 16.7386C16.7293 16.789 16.7854 16.8416 16.8202 16.8942C16.8491 16.9379 16.9199 17.0646 16.9199 17.3668H19.9199ZM10.4424 4.99902C12.7877 4.99902 14.6888 6.90019 14.6888 9.24539H17.6888C17.6888 5.24333 14.4445 1.99902 10.4424 1.99902V4.99902ZM10.4424 1.99902C6.44039 1.99902 3.19608 5.24333 3.19608 9.24539H6.19608C6.19608 6.90019 8.09724 4.99902 10.4424 4.99902V1.99902Z" fill="#ABABAB" mask="url(#path-3-outside-1_777_2980)"/>
</svg>
