<svg width="20" height="21" viewBox="0 0 20 21" fill="none" xmlns="http://www.w3.org/2000/svg">
<circle cx="10.2607" cy="1.52775" r="1.43107" fill="#A7A7A7"/>
<path d="M13.1227 17.9852C13.1227 18.3611 13.0487 18.7332 12.9049 19.0805C12.761 19.4277 12.5502 19.7433 12.2844 20.009C12.0186 20.2748 11.7031 20.4856 11.3559 20.6295C11.0086 20.7733 10.6364 20.8473 10.2606 20.8473C9.88472 20.8473 9.51254 20.7733 9.16529 20.6295C8.81803 20.4856 8.50251 20.2748 8.23674 20.009C7.97097 19.7433 7.76014 19.4277 7.61631 19.0805C7.47247 18.7332 7.39844 18.3611 7.39844 17.9852L10.2606 17.9852H13.1227Z" fill="#A7A7A7"/>
<mask id="path-3-outside-1_180_1008" maskUnits="userSpaceOnUse" x="0.0322266" y="0.958984" width="20" height="17" fill="black">
<rect fill="white" x="0.0322266" y="0.958984" width="20" height="17"/>
<path d="M15.9007 14.0498V8.70535C15.9007 5.53172 13.328 2.95898 10.1544 2.95898C6.98073 2.95898 4.408 5.53172 4.408 8.70535V14.0498C4.408 14.0498 2.03223 14.0498 2.03223 16.1964H18.1318C18.1318 14.0498 15.9007 14.0498 15.9007 14.0498Z"/>
</mask>
<path d="M15.9007 14.0498H14.4007V15.5498H15.9007V14.0498ZM4.408 14.0498V15.5498H5.908V14.0498H4.408ZM2.03223 16.1964H0.532227C0.532227 17.0248 1.2038 17.6964 2.03223 17.6964L2.03223 16.1964ZM18.1318 16.1964V17.6964C18.9602 17.6964 19.6318 17.0248 19.6318 16.1964H18.1318ZM14.4007 8.70535V14.0498H17.4007V8.70535H14.4007ZM5.908 14.0498V8.70535H2.908V14.0498H5.908ZM4.408 14.0498C4.408 12.5498 4.40732 12.5498 4.40664 12.5498C4.4064 12.5498 4.40571 12.5498 4.40523 12.5498C4.40427 12.5498 4.40327 12.5498 4.40223 12.5498C4.40015 12.5498 4.39791 12.5498 4.39552 12.5498C4.39073 12.5499 4.38533 12.5499 4.37932 12.55C4.36731 12.5502 4.35287 12.5505 4.33616 12.551C4.30277 12.552 4.26006 12.5538 4.2093 12.5571C4.10829 12.5636 3.97269 12.5761 3.81341 12.6001C3.50244 12.6469 3.06252 12.7433 2.60255 12.9511C2.14048 13.1599 1.61099 13.503 1.19643 14.0648C0.769185 14.6439 0.532227 15.364 0.532227 16.1964H3.53223C3.53223 15.9555 3.59224 15.8706 3.61045 15.846C3.64135 15.8041 3.7058 15.7447 3.83767 15.6851C3.97165 15.6246 4.12567 15.5869 4.26015 15.5666C4.3236 15.557 4.37361 15.5527 4.40252 15.5509C4.41673 15.5499 4.42506 15.5497 4.42647 15.5496C4.42716 15.5496 4.42606 15.5496 4.42304 15.5497C4.42153 15.5497 4.41953 15.5497 4.41703 15.5498C4.41578 15.5498 4.4144 15.5498 4.4129 15.5498C4.41215 15.5498 4.41136 15.5498 4.41054 15.5498C4.41014 15.5498 4.4095 15.5498 4.40929 15.5498C4.40865 15.5498 4.408 15.5498 4.408 14.0498ZM2.03223 17.6964H18.1318V14.6964H2.03223V17.6964ZM19.6318 16.1964C19.6318 15.3851 19.4159 14.678 19.0161 14.1011C18.6249 13.5365 18.1187 13.1839 17.6665 12.9664C17.2189 12.7511 16.7903 12.6509 16.4868 12.6022C16.3314 12.5773 16.1988 12.5643 16.0994 12.5575C16.0495 12.5541 16.0072 12.5522 15.9739 12.5511C15.9572 12.5505 15.9426 12.5502 15.9304 12.55C15.9243 12.5499 15.9187 12.5499 15.9138 12.5498C15.9113 12.5498 15.909 12.5498 15.9068 12.5498C15.9057 12.5498 15.9047 12.5498 15.9037 12.5498C15.9032 12.5498 15.9024 12.5498 15.9022 12.5498C15.9014 12.5498 15.9007 12.5498 15.9007 14.0498C15.9007 15.5498 15.9 15.5498 15.8993 15.5498C15.8991 15.5498 15.8984 15.5498 15.898 15.5498C15.8971 15.5498 15.8963 15.5498 15.8955 15.5498C15.8938 15.5498 15.8923 15.5498 15.8909 15.5498C15.8881 15.5497 15.8857 15.5497 15.8839 15.5497C15.8801 15.5496 15.8781 15.5496 15.8777 15.5495C15.877 15.5495 15.8827 15.5497 15.8937 15.5504C15.9164 15.552 15.9581 15.5558 16.0118 15.5644C16.1267 15.5828 16.2558 15.6168 16.366 15.6698C16.4716 15.7206 16.5231 15.7706 16.5502 15.8097C16.5688 15.8365 16.6318 15.9344 16.6318 16.1964H19.6318ZM10.1544 4.45898C12.4996 4.45898 14.4007 6.36015 14.4007 8.70535H17.4007C17.4007 4.70329 14.1564 1.45898 10.1544 1.45898V4.45898ZM10.1544 1.45898C6.1523 1.45898 2.908 4.7033 2.908 8.70535H5.908C5.908 6.36015 7.80916 4.45898 10.1544 4.45898V1.45898Z" fill="#A7A7A7" mask="url(#path-3-outside-1_180_1008)"/>
</svg>
