<svg width="9" height="9" viewBox="0 0 9 9" fill="none" xmlns="http://www.w3.org/2000/svg">
<g clip-path="url(#clip0_316_20420)">
<path d="M4.30736 0.0160256C4.49545 -0.0119216 4.68713 -0.00118007 4.87106 0.0476128C5.05498 0.0964057 5.2274 0.182257 5.37809 0.300076C5.57595 0.453937 5.72745 0.67881 5.82056 0.915518C5.84053 0.974111 5.86792 1.02981 5.90203 1.08121C5.9546 1.15566 6.02488 1.21534 6.1063 1.25467C6.18771 1.29399 6.2776 1.31168 6.36756 1.30609C6.44903 1.30609 6.51886 1.27058 6.60012 1.24691C6.93013 1.15312 7.28259 1.18685 7.58959 1.34159C7.88055 1.48362 8.12496 1.74315 8.26462 2.05172C8.40428 2.34761 8.42756 2.70288 8.34609 3.02244C8.32175 3.12069 8.28691 3.21595 8.24218 3.30649C8.20726 3.38933 8.14907 3.46035 8.12579 3.5432C8.0676 3.72052 8.12579 3.93376 8.25381 4.07579C8.31201 4.13497 8.38183 4.17047 8.44086 4.22965C8.65202 4.38883 8.81346 4.60666 8.90577 4.85693C9.02379 5.16383 9.03203 5.50315 8.92905 5.8156C8.84991 6.07982 8.69643 6.31469 8.48753 6.49121C8.27864 6.66774 8.02349 6.77819 7.75357 6.80893C7.60227 6.83281 7.46261 6.9146 7.38114 7.03401C7.29967 7.13969 7.27723 7.28256 7.28804 7.41275C7.31131 7.66129 7.2764 7.92167 7.17144 8.14654C7.04989 8.42359 6.8465 8.65525 6.58952 8.80933C6.3949 8.92558 6.17497 8.99093 5.94941 8.99954C5.59179 9.00823 5.24371 8.88163 4.97262 8.64427C4.903 8.58509 4.8446 8.51408 4.76334 8.47857C4.66639 8.42715 4.55618 8.40751 4.44781 8.42235C4.33946 8.43718 4.23827 8.48576 4.15814 8.56142C4.05031 8.6686 3.92824 8.75987 3.79548 8.83258C3.59763 8.93825 3.36486 8.98644 3.14373 8.99827C2.99243 8.98644 2.84114 8.9746 2.70148 8.91542C2.37616 8.80884 2.09963 8.58639 1.92274 8.28899C1.77036 8.02446 1.70131 7.71881 1.72489 7.41317C1.73752 7.27108 1.70075 7.12898 1.62098 7.01161C1.52838 6.89456 1.395 6.81826 1.24855 6.79857C0.957589 6.76307 0.666629 6.63288 0.457139 6.41984C0.212733 6.19497 0.062265 5.86357 0.0148802 5.53218C-0.0204287 5.27865 0.0155998 5.02012 0.118794 4.78655C0.211901 4.56147 0.374839 4.36047 0.572691 4.2064C0.630883 4.15927 0.700713 4.12355 0.747059 4.06459C0.808652 3.99974 0.853608 3.92048 0.877964 3.83379C0.90232 3.7471 0.905327 3.65565 0.886719 3.5675C0.875081 3.49649 0.840374 3.43731 0.805251 3.37729C0.66559 3.12874 0.584122 2.8449 0.607399 2.56064C0.619037 2.24109 0.758698 1.93337 0.968188 1.68482C1.15957 1.4655 1.41073 1.30896 1.68977 1.23508C1.91469 1.17602 2.15068 1.17602 2.3756 1.23508C2.45707 1.25875 2.53854 1.29425 2.62001 1.29425C2.71286 1.29911 2.80541 1.27994 2.88901 1.23855C2.9726 1.19715 3.04451 1.13488 3.09801 1.05754C3.13299 1.0082 3.15683 0.951629 3.16784 0.891847C3.27381 0.61974 3.45589 0.385195 3.69157 0.217228C3.88594 0.118743 4.09394 0.050968 4.3084 0.0162371L4.30736 0.0160256ZM4.41232 0.903894C4.26792 0.928418 4.13855 1.00905 4.05153 1.12877C3.99334 1.21162 3.97006 1.3063 3.93514 1.40098C3.79297 1.70408 3.55092 1.94698 3.251 2.08751C2.95108 2.22804 2.61224 2.25732 2.2933 2.17029C2.22347 2.15845 2.15364 2.12294 2.08381 2.12294C1.98436 2.10952 1.88322 2.12598 1.79285 2.17029C1.64155 2.2413 1.53681 2.38332 1.49046 2.54902C1.46503 2.64658 1.46901 2.74967 1.50189 2.84491C1.53681 2.93959 1.595 3.0106 1.62991 3.09345C1.71595 3.27331 1.76355 3.46966 1.76957 3.66958C1.77559 3.8695 1.73989 4.06845 1.66483 4.25332C1.57296 4.48775 1.42008 4.69232 1.22257 4.84509C1.15274 4.90427 1.07127 4.95077 1.01308 5.01079C0.95797 5.07455 0.918653 5.15078 0.898408 5.23314C0.878162 5.31549 0.877575 5.40158 0.896695 5.48421C0.931611 5.63807 1.02472 5.78009 1.15274 5.8511C1.22616 5.88712 1.30472 5.91108 1.38551 5.92212C1.66177 5.95895 1.92107 6.07833 2.13057 6.26513C2.37498 6.47796 2.53791 6.78589 2.59611 7.10545C2.61759 7.24244 2.6215 7.38168 2.60774 7.51969C2.59611 7.64988 2.63102 7.7919 2.71166 7.88659C2.75781 7.94772 2.81597 7.99843 2.88243 8.03547C2.94889 8.07252 3.0222 8.0951 3.09771 8.10178C3.17322 8.10846 3.24926 8.09909 3.32102 8.07427C3.39277 8.04945 3.45866 8.00972 3.5145 7.9576C3.57514 7.89612 3.64139 7.84063 3.71235 7.7919C3.97789 7.60007 4.30078 7.50814 4.62567 7.5319C4.95056 7.55565 5.2572 7.6936 5.49302 7.92209C5.55325 7.98266 5.62437 8.03088 5.70251 8.06412C5.87709 8.13513 6.07494 8.08779 6.22624 7.98106C6.33016 7.89821 6.41329 7.76823 6.42409 7.63804C6.43573 7.54336 6.41246 7.43684 6.42409 7.34216C6.42476 7.14433 6.46539 6.94874 6.54347 6.76754C6.62155 6.58634 6.73541 6.42339 6.87799 6.2888C7.09248 6.08196 7.36576 5.94934 7.6588 5.90986C7.79863 5.89597 7.92784 5.82785 8.01959 5.71965C8.1235 5.58946 8.17089 5.40009 8.1235 5.23355C8.11076 5.17056 8.08563 5.11083 8.04963 5.05795C8.01363 5.00508 7.96751 4.96014 7.91401 4.92583C7.84322 4.88132 7.77694 4.82978 7.71616 4.77197C7.4836 4.55649 7.32509 4.27086 7.26393 3.95701C7.20447 3.61887 7.26643 3.27026 7.4385 2.97467C7.49669 2.87999 7.53161 2.78446 7.53161 2.67879C7.52966 2.58164 7.50422 2.48648 7.45754 2.4017C7.41085 2.31692 7.34436 2.24514 7.26393 2.19269C7.16821 2.13698 7.05932 2.10898 6.94907 2.11174C6.85596 2.12358 6.76202 2.15908 6.66975 2.18275C6.3396 2.26512 5.99108 2.21867 5.69295 2.05257C5.42763 1.90908 5.21224 1.68591 5.07612 1.41345C5.02957 1.31877 5.00629 1.21225 4.93646 1.1294C4.80885 0.952082 4.61079 0.869233 4.41294 0.90474L4.41232 0.903894Z" fill="white"/>
<path d="M4.389 3.02226C4.72372 2.99742 5.05765 3.08023 5.34355 3.25897C5.62958 3.44136 5.85054 3.71222 5.97398 4.03176C6.09743 4.35131 6.11685 4.70269 6.02939 5.03428C5.94513 5.34105 5.77536 5.61645 5.54057 5.82726C5.30781 6.02846 5.01685 6.17027 4.71425 6.20599C4.37299 6.2514 4.02639 6.18476 3.72499 6.01578C3.43385 5.84792 3.202 5.59122 3.06222 5.28198C2.90027 4.9254 2.87536 4.5201 2.99239 4.14578C3.08703 3.83816 3.2693 3.56601 3.51612 3.3638C3.76927 3.16768 4.07196 3.04866 4.389 3.02057V3.02226ZM4.37736 3.82538C4.13295 3.86089 3.91182 4.02658 3.79544 4.25146C3.73213 4.37713 3.70205 4.51739 3.70818 4.65845C3.7143 4.79952 3.7564 4.93654 3.83036 5.05605C3.92318 5.21216 4.06756 5.32962 4.2377 5.38745C4.38413 5.43678 4.54094 5.44503 4.6916 5.41133C4.87864 5.37582 5.04075 5.25726 5.15713 5.10361C5.24773 4.98466 5.30051 4.84045 5.30843 4.69021C5.32007 4.51289 5.28515 4.32352 5.18041 4.1815C5.09475 4.04308 4.96857 3.93546 4.81962 3.87378C4.67933 3.81675 4.52627 3.80029 4.37736 3.82623V3.82538Z" fill="white"/>
</g>
<defs>
<clipPath id="clip0_316_20420">
<rect width="9" height="9" fill="white"/>
</clipPath>
</defs>
</svg>
