<svg width="21" height="21" viewBox="0 0 21 21" fill="none" xmlns="http://www.w3.org/2000/svg">
<path d="M9.95184 0.550829C10.7817 0.42114 11.6633 0.654472 12.3374 1.1732C12.7782 1.51035 13.1154 2.00307 13.3228 2.52163C13.3747 2.65132 13.4265 2.78101 13.5044 2.88464C13.7378 3.22179 14.1527 3.4032 14.5415 3.37737C14.7231 3.37737 14.8787 3.29959 15.0601 3.24768C15.7862 3.04021 16.59 3.11799 17.2643 3.45514C17.9125 3.76625 18.4572 4.33673 18.7682 5.01106C19.0794 5.65932 19.1313 6.43727 18.9498 7.13744C18.8979 7.3449 18.8202 7.55237 18.7165 7.75981C18.6387 7.94141 18.509 8.09696 18.4571 8.27837C18.3274 8.66726 18.4571 9.13408 18.7424 9.44519C18.8721 9.57488 19.0276 9.65266 19.1573 9.78234C19.624 10.1195 19.9872 10.6122 20.1944 11.1567C20.4538 11.8308 20.4797 12.5829 20.2463 13.257C20.0647 13.8274 19.7017 14.3719 19.2351 14.7609C18.7684 15.1239 18.2238 15.3573 17.6274 15.4351C17.2903 15.487 16.9792 15.6684 16.7976 15.9278C16.616 16.1611 16.5642 16.4724 16.5901 16.7577C16.642 17.3023 16.5642 17.8726 16.3307 18.3653C16.0713 18.9616 15.6047 19.4802 15.0342 19.8173C14.5934 20.0767 14.1265 20.2062 13.608 20.2323C12.83 20.2578 12.0262 19.9725 11.4299 19.4539C11.2743 19.3243 11.1446 19.1687 10.9632 19.0909C10.5224 18.8576 9.97782 18.9354 9.6148 19.2725C9.38146 19.5059 9.09624 19.7133 8.811 19.8689C8.37021 20.1022 7.85163 20.206 7.35895 20.2319C7.0218 20.206 6.68481 20.18 6.37355 20.0503C5.6475 19.817 5.02513 19.3242 4.63622 18.676C4.29907 18.1055 4.14349 17.4314 4.19542 16.7571C4.22129 16.446 4.14351 16.1347 3.96209 15.8755C3.75463 15.6161 3.46937 15.4606 3.13223 15.4089C2.48397 15.3311 1.83571 15.0458 1.36906 14.579C0.824428 14.0863 0.487473 13.3603 0.383659 12.6342C0.305882 12.0896 0.383658 11.5193 0.61699 11.0006C0.824456 10.5078 1.18746 10.0671 1.62827 9.72992C1.75796 9.62628 1.91352 9.54832 2.01715 9.41881C2.3024 9.13357 2.40604 8.71865 2.32826 8.32974C2.3024 8.17419 2.22462 8.0445 2.14666 7.91481C1.83555 7.37018 1.65394 6.74799 1.70587 6.12557C1.73174 5.42541 2.04302 4.75126 2.50966 4.20668C2.92459 3.74003 3.49506 3.37682 4.1173 3.22128C4.61002 3.09159 5.15442 3.09159 5.64714 3.22128C5.82874 3.27319 6.01016 3.35097 6.19177 3.35097C6.6067 3.37683 7.02164 3.16937 7.25496 2.83241C7.33274 2.72877 7.38465 2.59908 7.41052 2.46939C7.64385 1.87304 8.05878 1.35448 8.57734 0.99127C8.99245 0.784165 9.45911 0.628606 9.95184 0.550829ZM10.1852 2.49561C9.87405 2.54753 9.56279 2.72895 9.38137 2.98834C9.25168 3.16994 9.19977 3.37722 9.12199 3.58469C8.81088 4.25883 8.21434 4.8293 7.54024 5.11453C6.89198 5.39978 6.16593 5.45168 5.46577 5.27009C5.31021 5.24422 5.15466 5.16645 4.99911 5.16645C4.79165 5.14058 4.55832 5.16645 4.35085 5.27009C4.0137 5.42564 3.78039 5.73674 3.67671 6.09995C3.6248 6.30742 3.6248 6.54074 3.70258 6.74821C3.78035 6.95568 3.91004 7.11123 3.98782 7.29284C4.3767 8.0708 4.40275 9.03017 4.0656 9.83397C3.85813 10.3525 3.52097 10.7933 3.0802 11.1305C2.92464 11.2602 2.74305 11.3638 2.61354 11.4935C2.35417 11.7787 2.27639 12.1676 2.35417 12.5306C2.43194 12.8678 2.63941 13.1789 2.92463 13.3344C3.08019 13.4122 3.26178 13.4641 3.44319 13.49C4.03955 13.5677 4.63608 13.8271 5.10274 14.2419C5.64737 14.7085 6.01039 15.3828 6.13986 16.083C6.19177 16.3682 6.19177 16.6794 6.16572 16.9907C6.13986 17.2759 6.21763 17.587 6.39905 17.7945C6.65843 18.1316 7.09922 18.313 7.51397 18.2611C7.77334 18.2352 8.00669 18.1056 8.18811 17.95C8.3178 17.8203 8.47335 17.6906 8.6289 17.587C9.22525 17.1721 9.9513 16.9646 10.6515 17.0165C11.3775 17.0684 12.0777 17.3795 12.5962 17.8722C12.7259 18.0019 12.8815 18.1056 13.0629 18.1833C13.4518 18.3389 13.8928 18.2352 14.2297 18.0017C14.463 17.8201 14.6446 17.5351 14.6705 17.2498C14.6964 17.0424 14.6446 16.809 14.6705 16.6016C14.6705 15.7459 15.0335 14.8901 15.6818 14.2938C16.1484 13.853 16.7709 13.5419 17.4191 13.4639C17.7302 13.4381 18.0155 13.2823 18.2229 13.049C18.4563 12.7637 18.5601 12.3488 18.4563 11.9858C18.4043 11.7006 18.2229 11.4672 17.9896 11.3117C17.834 11.208 17.6785 11.1042 17.5488 10.9745C17.0302 10.5079 16.6672 9.85959 16.5375 9.18526C16.4078 8.45922 16.5375 7.6813 16.9264 7.03305C17.0561 6.82558 17.1339 6.61812 17.1339 6.38479C17.1339 5.96986 16.9005 5.55492 16.5375 5.3216C16.3301 5.19191 16.0709 5.14 15.8374 5.14C15.6299 5.16586 15.4224 5.24364 15.215 5.29555C14.4889 5.47715 13.6851 5.37333 13.0369 5.01031C12.4405 4.6992 11.9737 4.20651 11.6626 3.61016C11.5589 3.4027 11.507 3.16937 11.3515 2.98779C11.0669 2.59927 10.626 2.41768 10.1852 2.49561Z" fill="#A7A7A7"/>
<path d="M10.1331 7.1376C10.885 7.08569 11.6371 7.26729 12.2595 7.65616C12.8559 8.01917 13.3227 8.56381 13.6079 9.21207C13.9451 9.93812 13.9968 10.7938 13.7895 11.5457C13.6079 12.2199 13.2191 12.8163 12.7005 13.283C12.1819 13.7238 11.5337 14.0349 10.8593 14.1129C10.1074 14.2166 9.30341 14.061 8.65515 13.698C8.0069 13.335 7.48833 12.7645 7.17703 12.0903C6.81402 11.3124 6.7621 10.405 7.02148 9.60094C7.22894 8.9268 7.64385 8.33031 8.1883 7.88949C8.73274 7.47474 9.43291 7.18951 10.1331 7.1376L10.1331 7.1376ZM10.107 8.90077C9.5624 8.97855 9.06991 9.34157 8.81051 9.83427C8.52527 10.3789 8.55113 11.0789 8.88829 11.5974C9.09575 11.9346 9.40685 12.1938 9.79594 12.3235C10.107 12.4271 10.4701 12.4532 10.8072 12.3754C11.2222 12.2976 11.5852 12.0382 11.8443 11.7013C12.0518 11.4419 12.1555 11.1308 12.1815 10.7936C12.2074 10.4047 12.1296 9.98981 11.8963 9.67869C11.7147 9.39345 11.4296 9.13406 11.0925 9.00455C10.7813 8.87486 10.4442 8.84899 10.1071 8.90072L10.107 8.90077Z" fill="#A7A7A7"/>
</svg>
