<svg width="20" height="19" viewBox="0 0 20 19" fill="none" xmlns="http://www.w3.org/2000/svg">
<path d="M18.0354 5.94345C17.7824 5.3507 17.0234 4.84262 16.433 4.9273C15.8427 5.01198 15.0836 4.75794 14.7463 4.41922C14.409 4.0805 14.156 3.40306 14.156 2.72563C14.156 2.04819 13.7343 1.37075 13.0596 1.11671C12.4692 0.862674 11.6259 1.03203 11.2042 1.54011C10.7825 2.04819 10.1078 2.38691 9.68616 2.38691C9.26448 2.38691 8.50546 2.04819 8.08378 1.62479C7.74644 1.11671 6.81875 0.947354 6.2284 1.28607C5.63805 1.62479 5.13203 2.21755 5.21637 2.89499C5.3007 3.48774 5.04769 4.24986 4.71035 4.58858C4.37301 4.9273 3.69832 5.18134 3.02364 5.09666C2.43329 5.09666 1.67426 5.60474 1.42126 6.19749C1.16825 6.87493 1.42126 7.72173 1.84294 8.06045C2.34895 8.48384 2.68629 9.16128 2.68629 9.58468C2.68629 10.0081 2.34895 10.7702 1.92727 11.1936C1.50559 11.617 1.33692 12.4638 1.58993 13.0565C1.84294 13.6493 2.60196 14.1574 3.19231 14.0727C3.78266 13.988 4.54168 14.2421 4.87902 14.5808C5.21637 14.9195 5.46937 15.5969 5.46937 16.2744C5.46937 16.9518 5.89105 17.6292 6.56574 17.8833C7.15609 18.1373 7.99945 17.968 8.42112 17.4599C8.8428 16.9518 9.51749 16.6131 9.93917 16.6131C10.3608 16.6131 11.1199 16.9518 11.5415 17.3752C11.9632 17.7986 12.8066 17.968 13.3969 17.7139C13.9873 17.4599 14.4933 16.6978 14.409 16.105C14.3246 15.5123 14.5776 14.7501 14.915 14.4114C15.2523 14.0727 15.927 13.8187 16.6017 13.8187C17.2764 13.8187 17.9511 13.3953 18.2041 12.7178C18.4571 12.1251 18.2884 11.2783 17.7824 10.8549C17.2764 10.4315 16.939 9.75404 16.939 9.33064C16.939 8.90724 17.2764 8.14513 17.6981 7.72173C17.9511 7.46769 18.1197 7.12897 18.1197 6.79025C18.2041 6.62089 18.2041 6.28217 18.0354 5.94345ZM10.8669 11.9557C10.1922 12.2097 9.51749 12.2097 8.8428 11.9557C8.16812 11.7017 7.6621 11.1936 7.4091 10.5162C7.15609 9.83872 7.15609 9.16128 7.4091 8.48384C7.6621 7.80641 8.16812 7.29833 8.8428 7.04429C9.51749 6.79025 10.1922 6.79025 10.8669 7.04429C11.5415 7.29833 12.0476 7.80641 12.3006 8.48384C12.5536 9.16128 12.5536 9.83872 12.3006 10.5162C11.9632 11.1936 11.4572 11.7017 10.8669 11.9557Z" stroke="#ABABAB" stroke-width="1.5" stroke-miterlimit="10"/>
</svg>
