<svg width="9" height="9" viewBox="0 0 9 9" fill="none" xmlns="http://www.w3.org/2000/svg">
<path fill-rule="evenodd" clip-rule="evenodd" d="M4.86935 0.0467583C4.68543 -0.00203456 4.49374 -0.012776 4.30565 0.0151711L4.30669 0.0153826C4.09223 0.0501135 3.88423 0.117889 3.68986 0.216374C3.45418 0.38434 3.2721 0.618886 3.16613 0.890993C3.15512 0.950774 3.13128 1.00735 3.0963 1.05669C3.0428 1.13402 2.97089 1.1963 2.8873 1.23769C2.8037 1.27909 2.71115 1.29825 2.6183 1.2934C2.5572 1.2934 2.49609 1.27343 2.43499 1.25345C2.41463 1.2468 2.39426 1.24014 2.37389 1.23422C2.14897 1.17516 1.91298 1.17516 1.68806 1.23422C1.40902 1.3081 1.15786 1.46464 0.966479 1.68397C0.756989 1.93251 0.617328 2.24023 0.60569 2.55979C0.582413 2.84405 0.663881 3.12789 0.803542 3.37643L0.803818 3.37691C0.838847 3.43677 0.873403 3.49582 0.88501 3.56665C0.903618 3.6548 0.900611 3.74625 0.876255 3.83294C0.851899 3.91962 0.806943 3.99889 0.74535 4.06373C0.714305 4.10323 0.672722 4.1323 0.631158 4.16135C0.610673 4.17567 0.590193 4.18999 0.570982 4.20555C0.37313 4.35962 0.210192 4.56061 0.117085 4.7857C0.0138908 5.01927 -0.0221377 5.27779 0.0131712 5.53133C0.060556 5.86272 0.211024 6.19411 0.45543 6.41898C0.66492 6.63202 0.95588 6.76221 1.24684 6.79772C1.39329 6.81741 1.52667 6.8937 1.61927 7.01076C1.69904 7.12812 1.73581 7.27022 1.72318 7.41232C1.6996 7.71796 1.76865 8.02361 1.92103 8.28814C2.09792 8.58554 2.37445 8.80799 2.69977 8.91457C2.83943 8.97375 2.99073 8.98558 3.14202 8.99742C3.36315 8.98558 3.59592 8.9374 3.79377 8.83172C3.92653 8.75902 4.0486 8.66774 4.15643 8.56056C4.23656 8.48491 4.33775 8.43633 4.44611 8.42149C4.55447 8.40666 4.66468 8.4263 4.76163 8.47772C4.81997 8.50321 4.86653 8.54701 4.91392 8.59159C4.93254 8.60909 4.95128 8.62672 4.97091 8.64341C5.242 8.88078 5.59008 9.00737 5.9477 8.99869C6.17326 8.99008 6.39319 8.92472 6.58782 8.80847C6.84479 8.65439 7.04819 8.42273 7.16973 8.14569C7.27469 7.92082 7.3096 7.66044 7.28633 7.41189C7.27552 7.2817 7.29797 7.13883 7.37943 7.03316C7.4609 6.91375 7.60056 6.83196 7.75186 6.80807C8.02178 6.77733 8.27693 6.66688 8.48583 6.49036C8.69472 6.31383 8.84821 6.07896 8.92734 5.81474C9.03032 5.50229 9.02208 5.16298 8.90406 4.85607C8.81175 4.6058 8.65031 4.38797 8.43915 4.2288C8.40992 4.19949 8.37804 4.17599 8.34624 4.15255C8.31382 4.12865 8.28148 4.10481 8.2521 4.07494C8.12408 3.93291 8.06589 3.71966 8.12408 3.54234C8.13761 3.4942 8.16292 3.45005 8.18861 3.40526C8.20713 3.37297 8.22584 3.34034 8.24047 3.30563C8.2852 3.21509 8.32004 3.11984 8.34438 3.02158C8.42585 2.70203 8.40257 2.34675 8.26291 2.05087C8.12325 1.7423 7.87884 1.48276 7.58789 1.34074C7.28088 1.18599 6.92842 1.15227 6.59841 1.24606C6.57522 1.25281 6.55295 1.26054 6.53108 1.26812C6.47633 1.28711 6.42407 1.30523 6.36586 1.30523C6.27589 1.31083 6.186 1.29314 6.10459 1.25381C6.02317 1.21448 5.9529 1.15481 5.90032 1.08036C5.86621 1.02896 5.83882 0.973257 5.81885 0.914664C5.72574 0.677955 5.57424 0.453082 5.37639 0.299221C5.2257 0.181402 5.05328 0.0955512 4.86935 0.0467583ZM4.04982 1.12791C4.13684 1.0082 4.26621 0.927564 4.41061 0.90304L4.41123 0.903885C4.60908 0.868379 4.80714 0.951227 4.93475 1.12855C4.9813 1.18378 5.00717 1.24953 5.03303 1.31528C5.04596 1.34816 5.05889 1.38104 5.07441 1.4126C5.21053 1.68505 5.42592 1.90822 5.69125 2.05171C5.98937 2.21782 6.33789 2.26427 6.66804 2.1819C6.69814 2.17418 6.72842 2.1652 6.7588 2.15619C6.82152 2.13758 6.88463 2.11886 6.94736 2.11089C7.05761 2.10813 7.1665 2.13612 7.26222 2.19183C7.34265 2.24428 7.40915 2.31607 7.45583 2.40084C7.50252 2.48562 7.52796 2.58079 7.5299 2.67793C7.5299 2.78361 7.49499 2.87913 7.43679 2.97382C7.26472 3.26941 7.20276 3.61802 7.26222 3.95616C7.32338 4.27 7.48189 4.55563 7.71445 4.77111C7.77524 4.82893 7.84151 4.88047 7.91231 4.92497C7.9658 4.95928 8.01192 5.00422 8.04792 5.0571C8.08392 5.10998 8.10905 5.1697 8.1218 5.23269C8.16918 5.39924 8.1218 5.5886 8.01788 5.71879C7.92613 5.82699 7.79693 5.89511 7.65709 5.909C7.36405 5.94848 7.09078 6.08111 6.87628 6.28795C6.7337 6.42254 6.61984 6.58549 6.54176 6.76669C6.46368 6.94789 6.42305 7.14347 6.42238 7.3413C6.41657 7.38865 6.41948 7.43895 6.42238 7.48925C6.42529 7.53955 6.4282 7.58985 6.42238 7.63719C6.41158 7.76738 6.32845 7.89736 6.22453 7.98021C6.07323 8.08694 5.87538 8.13428 5.70081 8.06326C5.62267 8.03002 5.55154 7.9818 5.49131 7.92124C5.25549 7.69275 4.94885 7.5548 4.62396 7.53104C4.29908 7.50729 3.97618 7.59921 3.71064 7.79105C3.63968 7.83978 3.57343 7.89526 3.51279 7.95675C3.45695 8.00886 3.39106 8.04859 3.31931 8.07341C3.24755 8.09824 3.17151 8.1076 3.096 8.10093C3.02049 8.09425 2.94718 8.07167 2.88072 8.03462C2.81426 7.99757 2.7561 7.94687 2.70995 7.88573C2.62931 7.79105 2.5944 7.64902 2.60604 7.51884C2.61979 7.38082 2.61588 7.24158 2.5944 7.10459C2.53621 6.78504 2.37327 6.47711 2.12886 6.26428C1.91936 6.07747 1.66006 5.95809 1.3838 5.92126C1.30301 5.91023 1.22445 5.88626 1.15103 5.85025C1.02301 5.77924 0.929902 5.63721 0.894986 5.48335C0.875866 5.40072 0.876453 5.31464 0.896699 5.23228C0.916944 5.14993 0.956261 5.07369 1.01137 5.00993C1.0457 4.97452 1.08814 4.94382 1.13151 4.91244C1.16165 4.89063 1.19223 4.8685 1.22086 4.84424C1.41837 4.69146 1.57126 4.48689 1.66312 4.25247C1.73818 4.06759 1.77388 3.86865 1.76786 3.66873C1.76184 3.46881 1.71425 3.27245 1.6282 3.0926C1.61254 3.05543 1.5922 3.02065 1.57137 2.98504C1.54577 2.94127 1.51943 2.89626 1.50018 2.84405C1.4673 2.74882 1.46332 2.64573 1.48875 2.54816C1.5351 2.38247 1.63984 2.24044 1.79114 2.16943C1.88151 2.12512 1.98265 2.10867 2.0821 2.12209C2.124 2.12209 2.1659 2.13487 2.2078 2.14765C2.23573 2.15618 2.26366 2.1647 2.29159 2.16943C2.61053 2.25647 2.94937 2.22718 3.24929 2.08665C3.54921 1.94612 3.79126 1.70323 3.93343 1.40013C3.94147 1.37834 3.94888 1.35656 3.95625 1.33492C3.98091 1.2625 4.00502 1.1917 4.04982 1.12791ZM5.34136 3.25812C5.05545 3.07938 4.72152 2.99657 4.3868 3.02141V3.01972C4.06976 3.0478 3.76707 3.16682 3.51392 3.36294C3.2671 3.56516 3.08483 3.83731 2.9902 4.14493C2.87317 4.51924 2.89808 4.92454 3.06003 5.28113C3.1998 5.59036 3.43166 5.84707 3.72279 6.01493C4.02419 6.1839 4.37079 6.25055 4.71205 6.20514C5.01465 6.16942 5.30561 6.02761 5.53838 5.8264C5.77316 5.6156 5.94293 5.34019 6.02719 5.03343C6.11465 4.70183 6.09523 4.35045 5.97179 4.03091C5.84834 3.71136 5.62738 3.4405 5.34136 3.25812ZM3.79324 4.2506C3.90963 4.02573 4.13076 3.86003 4.37516 3.82453V3.82537C4.52407 3.79944 4.67714 3.8159 4.81742 3.87292C4.96637 3.93461 5.09255 4.04223 5.17821 4.18064C5.28296 4.32267 5.31787 4.51204 5.30623 4.68936C5.29832 4.8396 5.24553 4.98381 5.15493 5.10275C5.03855 5.2564 4.87644 5.37497 4.6894 5.41047C4.53874 5.44418 4.38193 5.43592 4.2355 5.38659C4.06536 5.32877 3.92098 5.21131 3.82816 5.0552C3.75421 4.93569 3.7121 4.79867 3.70598 4.6576C3.69986 4.51653 3.72993 4.37627 3.79324 4.2506Z" fill="#FDFDFD"/>
</svg>
